<?xml version="1.0" encoding="utf-8"?>
<!-- Generator: Adobe Illustrator 17.0.0, SVG Export Plug-In . SVG Version: 6.00 Build 0)  -->
<!DOCTYPE svg PUBLIC "-//W3C//DTD SVG 1.1//EN" "http://www.w3.org/Graphics/SVG/1.1/DTD/svg11.dtd">
<svg version="1.1" xmlns="http://www.w3.org/2000/svg" xmlns:xlink="http://www.w3.org/1999/xlink" x="0px" y="0px" width="500px"
	 height="376.409px" viewBox="0 0 500 376.409" enable-background="new 0 0 500 376.409" xml:space="preserve">
<g id="BACKGROUND">
	<g>
		<path fill="#4FAFDA" d="M189.037,324.751c23.647,3.041,47.498,3.496,71.294,4.408c10.91,0.418,21.605-0.086,31.677,3.828
			c9.431,3.665,16.961,11.02,26.693,14.173c7.552,2.447,15.699,2.361,23.586,1.463c33.364-3.796,64.772-22.376,84.164-49.789
			c17.761-25.106,25.177-57.231,20.524-87.603c-2.822-18.422-11.299-35.602-13.332-54.164c-2.148-19.623,5.347-36.731,10.082-55.392
			c3.302-13.013,4.745-26.495,4.271-39.912c-0.273-7.729-1.245-15.652-4.901-22.468c-9.933-18.513-34.98-22.006-55.886-19.92
			c-25.877,2.583-51.695,10.566-74.461,23.137c-17.975,9.926-35.78,24.374-56.41,28.291c-23.262,4.417-41.255-11.525-62.19-18.796
			c-47.103-16.36-103.974,15.777-124.74,58.52c-25.635,52.766-22.716,139.085,25.266,178.244
			c26.148,21.34,59.842,31.426,93.303,35.84C188.331,324.66,188.684,324.706,189.037,324.751z"/>
	</g>
</g>
<g id="OBJECTS">
	<g>
		<g>
			<g>
				<path fill="#FFFFFF" d="M380.686,259.326c0.074-0.043,0.535,0.567,1.217,1.765c0.686,1.195,1.537,3.011,2.33,5.353
					c1.623,4.668,2.642,11.559,2.038,19.074c-0.599,7.514-2.337,14.109-3.677,18.804c-1.37,4.698-2.38,7.548-2.554,7.5
					c-0.192-0.053,0.489-3.003,1.614-7.746c1.097-4.742,2.661-11.303,3.247-18.664c0.589-7.357-0.249-14.054-1.597-18.684
					C381.996,262.075,380.47,259.439,380.686,259.326z"/>
			</g>
			<g>
				<path fill="#FFFFFF" d="M385.316,221.72c0.086-0.038,0.644,0.983,1.575,2.866c0.931,1.883,2.237,4.627,3.783,8.051
					c3.067,6.847,7.195,16.434,10.189,27.563c1.472,5.566,2.475,10.979,2.984,15.948c0.512,4.97,0.564,9.484,0.308,13.252
					c-0.249,3.77-0.724,6.794-1.183,8.852c-0.453,2.06-0.812,3.17-0.893,3.152c-0.254-0.049,0.867-4.586,1.105-12.05
					c0.296-7.449-0.682-17.797-3.649-28.801c-2.96-11.008-6.919-20.599-9.753-27.532c-1.427-3.469-2.581-6.276-3.38-8.218
					C385.621,222.854,385.229,221.759,385.316,221.72z"/>
			</g>
		</g>
		<g>
			<g>
				<path fill="#FFFFFF" d="M213.971,265.858c0.159,0.172-1.399,1.658-3.421,4.417c-0.502,0.693-1.047,1.452-1.557,2.317
					c-0.558,0.834-1.043,1.791-1.583,2.778c-1.004,2.015-1.957,4.304-2.692,6.795c-0.703,2.501-1.113,4.946-1.334,7.186
					c-0.067,1.123-0.166,2.191-0.137,3.195c-0.029,1.004,0.029,1.937,0.086,2.79c0.245,3.411,0.774,5.498,0.549,5.56
					c-0.136,0.047-1.009-1.968-1.515-5.459c-0.121-0.872-0.237-1.831-0.258-2.868c-0.079-1.036-0.022-2.143,0.013-3.31
					c0.157-2.327,0.545-4.877,1.276-7.474c0.762-2.588,1.79-4.954,2.894-7.008c0.59-1.007,1.131-1.975,1.749-2.81
					c0.57-0.867,1.178-1.617,1.744-2.291C212.07,266.988,213.881,265.745,213.971,265.858z"/>
			</g>
			<g>
				<path fill="#FFFFFF" d="M217.628,277.898c0.115,0.184-0.753,0.848-1.887,2.118c-0.574,0.628-1.179,1.44-1.773,2.382
					c-0.571,0.958-1.117,2.057-1.546,3.269c-0.41,1.219-0.656,2.421-0.798,3.527c-0.113,1.108-0.137,2.12-0.072,2.969
					c0.11,1.699,0.385,2.758,0.18,2.831c-0.148,0.062-0.766-0.906-1.143-2.703c-0.197-0.894-0.279-1.99-0.227-3.203
					c0.08-1.211,0.312-2.537,0.76-3.869c0.467-1.325,1.103-2.512,1.786-3.515c0.707-0.988,1.447-1.8,2.153-2.383
					C216.466,278.139,217.55,277.758,217.628,277.898z"/>
			</g>
		</g>
		<g>
			<g>
				<path fill="#FFFFFF" d="M166.864,165.694c0.071-0.062,0.686,0.543,1.741,1.698c0.536,0.571,1.168,1.289,1.838,2.176
					c0.678,0.88,1.491,1.855,2.256,3.029c0.394,0.579,0.807,1.186,1.238,1.818c0.426,0.635,0.812,1.331,1.242,2.034
					c0.88,1.396,1.669,2.972,2.528,4.616c1.62,3.335,3.168,7.121,4.402,11.224c1.195,4.115,1.953,8.134,2.405,11.814
					c0.173,1.847,0.367,3.598,0.387,5.248c0.021,0.824,0.075,1.618,0.063,2.383c-0.018,0.764-0.035,1.498-0.051,2.198
					c-0.004,1.4-0.157,2.661-0.247,3.768c-0.081,1.108-0.221,2.055-0.36,2.825c-0.258,1.543-0.445,2.385-0.539,2.371
					c-0.243-0.032,0.214-3.451,0.175-8.976c-0.012-0.69-0.025-1.413-0.038-2.167c-0.016-0.753-0.095-1.534-0.141-2.344
					c-0.068-1.622-0.302-3.34-0.506-5.151c-0.514-3.608-1.295-7.543-2.467-11.582c-1.211-4.027-2.695-7.755-4.224-11.063
					c-0.813-1.63-1.551-3.2-2.375-4.598c-0.402-0.704-0.76-1.403-1.156-2.044c-0.399-0.639-0.781-1.253-1.146-1.839
					C168.919,168.474,166.678,165.853,166.864,165.694z"/>
			</g>
			<g>
				<path fill="#FFFFFF" d="M182.423,172.131c0.117-0.104,1.695,1.372,3.701,4.217c1.01,1.416,2.074,3.201,3.111,5.259
					c1.006,2.072,1.966,4.426,2.732,6.975c0.743,2.557,1.215,5.055,1.497,7.34c0.248,2.291,0.325,4.367,0.246,6.105
					c-0.139,3.479-0.661,5.576-0.816,5.552c-0.221-0.027-0.044-2.15-0.156-5.552c-0.045-1.701-0.221-3.719-0.53-5.94
					c-0.342-2.216-0.838-4.632-1.559-7.116c-0.744-2.477-1.641-4.775-2.558-6.821c-0.947-2.032-1.896-3.821-2.783-5.274
					C183.554,173.96,182.252,172.274,182.423,172.131z"/>
			</g>
		</g>
	</g>
	<g>
		<g>
			<g>
				<polygon id="XMLID_14_" fill="#F97A5D" points="127.944,284.559 126.747,282.116 93.451,307.556 107.978,331.089 
					141.122,303.144 				"/>
				<polygon id="XMLID_13_" fill="#D5D3D3" points="94.847,308.1 107.607,330.168 108.424,329.805 97.06,309.171 				"/>
				<path id="XMLID_12_" fill="#F4F3F3" d="M127.285,284.075L94.847,308.1c0,0,0.136,0.516,0.941,0.833
					c0.805,0.318,1.272,0.237,1.272,0.237l34.104-23.341c0,0-1.966-0.457-2.68-0.99
					C127.771,284.307,127.285,284.075,127.285,284.075z"/>
				<path id="XMLID_11_" fill="#F97A5D" d="M131.998,284.889l-35.547,23.743l11.544,21.88l1.86,3.031l35.548-26.31
					c0,0-3.745-5.588-5.993-8.962c-2.248-3.374-6.66-11.331-6.901-11.841C132.27,285.92,131.998,284.889,131.998,284.889z"/>
			</g>
			<g>
				<polygon id="XMLID_10_" fill="#6E5395" points="425.144,120.971 426.148,118.92 454.108,140.283 441.91,160.044 
					414.078,136.577 				"/>
				<polygon id="XMLID_9_" fill="#D5D3D3" points="452.936,140.74 442.221,159.271 441.535,158.965 451.078,141.639 				"/>
				<path id="XMLID_8_" fill="#F4F3F3" d="M425.696,120.564l27.24,20.175c0,0-0.114,0.433-0.79,0.7
					c-0.676,0.267-1.068,0.199-1.068,0.199l-28.639-19.6c0,0,1.651-0.384,2.25-0.831
					C425.288,120.76,425.696,120.564,425.696,120.564z"/>
				<path id="XMLID_7_" fill="#6E5395" d="M421.739,121.248l29.85,19.938l-9.694,18.373l-1.562,2.545l-29.851-22.093
					c0,0,3.145-4.693,5.032-7.525c1.888-2.833,5.593-9.515,5.795-9.943C421.511,122.114,421.739,121.248,421.739,121.248z"/>
			</g>
		</g>
		<g>
			<g>
				<path fill="#F97A5D" d="M88.192,82.521c0,0-2.111,1.461-1.056,3.897c1.056,2.436,5.683,9.662,11.935,9.418
					c0.257-0.01-7.876-13.316-7.876-13.316H88.192z"/>
				<g>
					<g>
						<path fill="#6E5395" d="M78.628,215.735c0,0-7.818-6.985-10.321-5.734c-3.058,1.529-20.562,18.678-19.877,26.758
							c0.28,3.309,4.133,0.474,10.997-6.646c6.865-7.12,15.51-4.069,15.51-4.069L78.628,215.735z"/>
					</g>
					<g>
						<path fill="#6E5395" d="M97.622,227.512l-9.438-5.662c0,0-24.464,22.935-20.641,25.993c2.899,2.319,4.603,0.239,11.467-6.881
							c6.865-7.118,15.562-3.025,15.562-3.025L97.622,227.512z"/>
					</g>
					<polygon fill="#E0A584" points="155.275,152.058 157.045,177.189 117.757,166.955 					"/>
					<path fill="#1D262D" d="M117.757,167.819c0,0,34.366,2.165,38.942,0.639c0,0,6.716,65.977-5.234,73.095
						c-11.951,7.12-38.769-3.306-38.769-3.306l7.241-14.237l15.612-1.018v-25.425l-1.119,0.254L117.757,167.819z"/>
					<path fill="#2C373F" d="M74.679,212.823c0,0-8.644,3.56-5.847,12.205c0,0,29.506,23.137,43.864,17.797
						c8.044-2.991,16.685-25.813,22.73-45.311l21.273-29.056c0,0-10.033,0.501-13.38,0.489c-6.396-0.024-25.562-1.128-25.562-1.128
						s-10.01,52.378-13.577,53.648C100.613,222.738,74.679,212.823,74.679,212.823z"/>
					<path fill="#FFC5B1" d="M125.766,102.126c0,0,20.596-19.324,24.155-24.41c3.559-5.085,11.189-22.12,20.594-29.239l-4.576-9.662
						c0,0,2.797-1.525,4.576,2.542c0,0,6.61-13.22,8.135-12.967c1.527,0.254-3.049,10.17-3.049,10.17s6.358-9.154,8.137-8.898
						c1.778,0.254-4.577,10.29-4.577,10.29s7.118-8.256,8.137-7.239c1.017,1.017-5.594,7.239-5.594,7.239s7.118-4.087,7.882-2.74
						c0.763,1.348-7.118,4.908-7.118,4.908s-0.763,5.848-5.593,8.391c0,0-9.565,25.841-18.21,34.232l-27.771,28.862L125.766,102.126
						z"/>
					<path fill="#FFC5B1" d="M101.18,112.141c0,0-19.515,20.414-24.633,23.925c-5.119,3.51-22.224,10.982-29.43,20.321l-9.619-4.667
						c0,0-1.552,2.783,2.5,4.6c0,0-13.283,6.486-13.042,8.016c0.239,1.528,10.198-2.956,10.198-2.956s-9.213,6.272-8.975,8.053
						c0.238,1.781,10.332-4.48,10.332-4.48s-8.322,7.041-7.314,8.067c1.006,1.027,7.291-5.525,7.291-5.525s-4.153,7.08-2.812,7.855
						c1.34,0.775,4.973-7.073,4.973-7.073s5.855-0.707,8.443-5.515c0,0,24.478-9.738,32.949-18.304l30.46-21.583L101.18,112.141z"/>
					<path fill="#FFFFFF" d="M108.496,104.005l-9.87,9.661l2.503,10.893c0,0,9.724,23.345,11.194,29.04
						c2.285,8.856-1.411,22.358-1.411,22.358s16.485-1.368,31.485-1.877c14.999-0.508,19.906-5.341,19.906-5.341
						s-13.005-43.314-21.983-55.422c-8.98-12.107-12.246-15.897-12.246-15.897l-13.221,2.89L108.496,104.005z"/>
					<path fill="#FFFFFF" d="M137.463,111.89l10.284-6.571c0,0,1.571-7.04-10.832-15.344l-14.543,9.112L137.463,111.89z"/>
					<path fill="#FFFFFF" d="M100.706,112.903c-5.638,0.791-15.941,15.08-17.09,15.052c0,0,7.251,11.833,12.995,12.217
						C96.611,140.172,121.888,109.932,100.706,112.903z"/>
					<path fill="#FFC5B1" d="M120.608,103.605c0,0-8.195-6.123-7.91-8.564c0.072-0.615,1.207-1.613,1.503-2.499
						c1.589-4.767-6.072-17.05-10.779-19.639c-3.703-2.036-2.079-2.216-9.873,2.414c-7.793,4.631-3.354,12.64,0.127,16.781
						c3.29,3.915,7.057,5.592,10.448,5.875l4.82,10.706L120.608,103.605z"/>
					<path fill="#FFC5B1" d="M105.821,112.105c-1.55-3.802,1.385-8.591,6.556-10.7c5.173-2.11,10.62-0.738,12.173,3.063
						c1.549,3.8-3.655,9.515-6.56,10.7C115.085,116.351,107.37,115.905,105.821,112.105z"/>
				</g>
				<path fill="#FFC5B1" d="M93.675,92.099c0,0-2.658-0.148-2.953,1.624c-0.295,1.772,4.873,1.772,6.792,0.443L93.675,92.099z"/>
				<path fill="#F97A5D" d="M95.004,93.724c-0.505-3.201-3.916-5.581-3.746-8.7c1.635,0.013,2.686-2.012,1.941-3.743
					c-0.293-0.68-0.789-1.262-1.106-1.933c-0.317-0.671-0.4-1.548,0.085-1.927c0.229-0.179,0.541-0.21,0.838-0.24
					c2.425-0.249,6.577,0.478,8.808-0.348c2.125-0.787,4.4-2.319,4.179-4.921c-0.193-2.265-2.194-4.103-4.031-5.49
					c-1.054-0.796-4.063-2.877-5.197-2.688c-1.734,0.289-2.153,2.6-2.279,4.535c-1.212-1.155-2.999-0.969-4.054-0.03
					c-1.054,0.939-1.553,2.431-2.012,3.872c-0.46,1.441-0.946,2.937-1.986,3.894c-0.97,0.893-2.503,1.567-2.302,3.084
					c0.239,1.809,2.601,2.451,3.693,3.993c-0.268-0.379-0.497,2.036-0.342,2.445c0.466,1.233,1.629,2.049,2.47,2.992
					C91.756,90.526,92.632,92.55,95.004,93.724z"/>
				<path fill="#FFFFFF" d="M109.853,86.404l-6.056,3.132C103.797,89.536,111.071,94.816,109.853,86.404z"/>
				
					<ellipse transform="matrix(0.8849 -0.4658 0.4658 0.8849 -29.748 56.6867)" fill="#F4B19F" cx="99.829" cy="88.537" rx="1.913" ry="1.285"/>
				
					<ellipse transform="matrix(0.8849 -0.4658 0.4658 0.8849 -25.9168 60.1101)" fill="#F4B19F" cx="108.671" cy="82.496" rx="1.913" ry="1.285"/>
				<g>
					<path fill="#F97A5D" d="M105.625,86.182c-0.028-0.036,0.085-0.185,0.347-0.373c0.25-0.193,0.685-0.401,1.008-0.749
						c0.32-0.338,0.435-1.041-0.055-1.139c-0.51-0.173-1.087,0.411-1.75,0.966c-0.164,0.136-0.326,0.271-0.487,0.404
						c-0.151,0.138-0.467,0.34-0.795,0.299c-0.625-0.101-0.89-0.519-1.131-0.797c-0.48-0.617-0.776-1.262-0.94-1.819
						c-0.325-1.128-0.179-1.856-0.101-1.85c0.109-0.006,0.146,0.694,0.559,1.687c0.207,0.493,0.519,1.052,0.972,1.581
						c0.22,0.269,0.499,0.518,0.696,0.527c0.083,0.004,0.148-0.024,0.305-0.155c0.158-0.133,0.318-0.268,0.481-0.404
						c0.334-0.27,0.623-0.543,1.005-0.796c0.371-0.25,0.9-0.409,1.374-0.247c0.506,0.132,0.803,0.723,0.715,1.133
						c-0.057,0.418-0.264,0.726-0.501,0.951c-0.499,0.417-0.945,0.518-1.227,0.644C105.813,86.152,105.656,86.221,105.625,86.182z"
						/>
				</g>
				<path fill="#EDA091" d="M104.123,97.974c0,0,3.863,0.022,5.959-1.268c0,0-1.774,2.177-5.322,2.742L104.123,97.974z"/>
				<g>
					<path fill="#2C373F" d="M105.798,80.651c-0.035,0.191-0.575,0.25-1.146,0.502c-0.578,0.234-0.996,0.581-1.158,0.473
						c-0.165-0.088,0.108-0.777,0.89-1.106C105.165,80.188,105.85,80.471,105.798,80.651z"/>
				</g>
				<g>
					<path fill="#2C373F" d="M98.228,85.616c-0.145-0.108,0.082-0.73,0.639-1.352c0.562-0.636,1.282-0.848,1.357-0.671
						c0.081,0.174-0.358,0.576-0.851,1.135C98.873,85.286,98.386,85.735,98.228,85.616z"/>
				</g>
				<g>
					<path fill="#F97A5D" d="M95.294,84.656c-0.313-0.232-0.557-1.225,0.64-2.562c1.21-1.368,2.561-1.128,2.723-0.747
						c0.174,0.373-0.276,0.904-1.337,2.107C96.243,84.652,95.633,84.911,95.294,84.656z"/>
				</g>
				<g>
					<path fill="#F97A5D" d="M101.653,79.386c-0.173-0.324,0.018-1.266,1.576-1.924c1.58-0.679,2.633,0.069,2.618,0.458
						c-0.002,0.388-0.598,0.658-1.985,1.256C102.462,79.764,101.839,79.739,101.653,79.386z"/>
				</g>
			</g>
			<g>
				<g>
					<path fill="#6E5395" d="M433.965,88.767c0.102,0.101-1.576,1.989-5.058,4.045c-3.439,2.054-8.85,4.09-15.074,4.136
						c-6.224,0.046-11.665-1.91-15.134-3.913c-3.511-2.004-5.217-3.867-5.117-3.97c0.145-0.184,2.053,1.388,5.569,3.11
						c3.483,1.727,8.729,3.442,14.672,3.399c5.942-0.044,11.163-1.837,14.62-3.615C431.932,90.185,433.818,88.585,433.965,88.767z"
						/>
				</g>
				<g>
					<path fill="#6E5395" d="M395.994,85.914c-0.095,0.209-1.953-0.562-5.083-1.26c-1.56-0.369-3.453-0.652-5.561-0.914
						c-2.116-0.234-4.455-0.42-6.925-0.595c-2.471-0.174-4.836-0.373-6.984-0.639c-2.147-0.285-4.078-0.624-5.668-1.054
						c-3.192-0.833-5-1.819-4.937-1.958c0.083-0.211,1.984,0.439,5.145,1.008c1.577,0.3,3.48,0.533,5.599,0.745
						c2.124,0.194,4.469,0.353,6.944,0.527c2.476,0.176,4.844,0.403,6.991,0.711c2.144,0.337,4.069,0.729,5.642,1.23
						C394.319,84.679,396.065,85.784,395.994,85.914z"/>
				</g>
				<path fill="#6E5395" d="M358.343,45.308c5.934-1.259,12.082-0.175,18.065,0.822c5.984,0.997,12.196,1.896,18.046,0.29
					c10.562-2.899,18.58-13.57,29.532-13.484c4.51,0.035,8.762,1.961,13.156,2.98c5.456,1.266,11.14,1.13,16.667,2.033
					c5.528,0.903,11.238,3.125,14.361,7.774c3.707,5.517,2.69,13.3-1.199,18.69c-3.889,5.39-10.117,8.672-16.497,10.532
					c-4.451,1.298-9.193,2.048-13.045,4.629c-3.896,2.611-6.44,6.813-10.071,9.782c-9.109,7.449-23.284,5.314-32.693-1.751
					c-2.364-1.776-4.556-3.835-7.212-5.135c-10.803-5.287-26.34,1.713-35.644-7.909C342.362,64.791,343.708,48.412,358.343,45.308z"
					/>
				<g>
					<g>
						<path fill="#F4B19F" d="M355.378,234.538c0,0,9.898,21.215,11.055,17.287c1.156-3.93,0.773-13.365,0.153-14.712
							c-0.622-1.348-4.669-7.298-4.669-7.298L355.378,234.538z"/>
						<path fill="#FFC5B1" d="M426.949,62.985c0.915,1.174,0.304-0.087,1.341,1.606c4.31-0.151,7.203-3.798,7.203-3.798
							s6.841,0.181,6.762-1.04c-0.078-1.224-6.558-0.766-6.558-0.766s6.855-2.154,6.479-3.229c-0.374-1.074-8.288,2.352-8.288,2.352
							s7.986-4.957,6.806-5.752c-1.179-0.793-8.863,3.535-8.863,3.535s6.678-5.485,5.677-6.193
							c-0.999-0.707-10.262,6.432-10.262,6.432c0.135-3.511-2.384-3.388-2.384-3.388l0.104,8.575
							C424.966,61.317,426.527,62.445,426.949,62.985z"/>
						<path fill="#FFC5B1" d="M325.546,24.175c-1.464,0.269-0.328-0.239-2.229,0.341c-3.121-2.976-2.707-7.653-2.707-7.653
							s-5.234-4.406-4.366-5.266c0.873-0.863,5.414,3.78,5.414,3.78s-3.695-6.161-2.701-6.716c0.993-0.554,4.638,7.262,4.638,7.262
							s-2.682-9.009-1.272-8.82c1.408,0.189,4.282,8.525,4.282,8.525s-1.352-8.533-0.136-8.398
							c1.216,0.134,3.405,11.623,3.405,11.623c2.23-2.716,4.031-0.951,4.031-0.951l-5.653,6.217
							C328.252,24.117,326.219,24.052,325.546,24.175z"/>
						<path fill="#FFC5B1" d="M361.053,59.993c-1.893-0.31-6.47,2.731-8.76,7.689c-1.282,2.775-2.164,5.593-0.692,10.107
							c0.692,2.123,2.143,2.389,2.466,3.34c0.409,1.204-0.945,4.999-0.945,4.999s5.403,2.182,5.403,2.182
							c0.351-2.607,0.749-5.231,3.406-6.363c0.994-0.424,2.058-0.692,2.995-1.229c2.532-1.451,3.884-4.626,4.923-7.224
							C370.625,71.553,365.799,60.771,361.053,59.993z"/>
						<path fill="#F4B19F" d="M354.622,133.677l-9.051-3.633c0,0-26.864,49.818-26.753,63.639
							c0.111,13.821,36.896,41.494,36.896,41.494l6.205-5.363c0,0-11.358-19.803-17.429-26.786
							C338.418,196.046,354.622,133.677,354.622,133.677z"/>
						<path fill="#FFC5B1" d="M399.566,190.426c0,0,19.95-9.466,15.941-10.302c-4.009-0.832-13.385,0.315-14.676,1.043
							c-1.293,0.729-6.895,5.245-6.895,5.245L399.566,190.426z"/>
						<path fill="#FFC5B1" d="M363.513,133.245l-13.732,4.996c0,0-13.736,60.416-8.492,69.901c5.242,9.488,19.969,3.21,40.943-8.238
							c17.568-9.59,17.568-9.59,17.568-9.59l-5.864-3.903c0,0-20.443,4.006-26.184,8c0,0,2.996-8.489,6.991-20.472
							C378.737,161.955,381.492,149.722,363.513,133.245z"/>
						<path fill="#FFC5B1" d="M346.611,92.085c0-4.014,1.292-6.918,5.306-6.918c4.015,0,9.563,1.408,9.563,5.422
							c0,4.016-3.163,10.535-7.179,10.535C350.287,101.125,346.611,96.101,346.611,92.085z"/>
						<path fill="#FFC5B1" d="M349.781,84.593c0,0-12.482-13.508-14.979-26.741c-2.498-13.231-6.74-34.702-6.74-34.702l-4.744,1.366
							c0,0-2.248,29.343,0,33.837c2.247,4.494,13.225,34.412,16.569,42.269L349.781,84.593z"/>
						<path fill="#FFC5B1" d="M363.191,95.121c0,0,0.96-4.202,16.744-9.913c15.784-5.711,45.562-24.22,45.562-24.22l2.972,3.399
							c0,0-16.18,18.689-25.593,21.967c-9.413,3.279-29.406,16.203-31.463,17.238C368.301,105.157,368.34,107.127,363.191,95.121z"
							/>
						<path fill="#2C373F" d="M349.781,84.593c0,0-12.682,4.11-12.682,23.407c0,0,0.008,26.43,2.997,31.237
							c0,0,4.859,1.245,10.917,0c6.352-1.306,12.5-5.992,12.5-5.992l9.976-29.949l-1.193-14.032l-13.564-2.62
							c0,0,3.892,18.184-10.186,10.367c-2.736-1.519,4.025-11.836,4.025-11.836L349.781,84.593z"/>
						<path fill="#2C373F" d="M339.05,100.287l-6.249-13.018c0,0,0.896-7.898,12.368-10.729c0,0,1.16,3.981,2.432,5.502
							c1.271,1.521,4.974,3.138,4.974,3.138L339.05,100.287z"/>
						<path fill="#2C373F" d="M362.675,105.52l19.87-4.073c0,0,3.456-7.158-4.737-15.672c0,0-15.5,0.935-17.506,1.102
							c-1.975,0.165-0.619,1.685-0.619,1.685L362.675,105.52z"/>
					</g>
					<path fill="#2C373F" d="M340.064,132.799c0,0-18.796,34.749-21.9,40.958c0,0,55.449,25.47,77.958-5.189
						c0,0-12.804-27.1-32.598-37.417l0,0l-8.539-2.556l-14.586,4.036"/>
				</g>
				<path fill="#FFC5B1" d="M369.121,73.166c0,0,2.141-2.141,3.458-0.659c1.317,1.482-4.775,3.622-4.775,3.622L369.121,73.166z"/>
				<g>
					<path fill="#6E5395" d="M408.283,43.966c0.021,0.075-0.806,0.432-2.385,0.807c-1.576,0.379-3.913,0.723-6.815,0.782
						c-2.901,0.058-6.351-0.2-10.127-0.712c-3.779-0.5-7.884-1.237-12.203-1.708c-4.312-0.462-8.458-0.545-12.13,0.048
						c-3.673,0.583-6.853,1.786-9.282,3.191c-2.43,1.416-4.121,2.986-5.159,4.176c-1.044,1.19-1.514,1.949-1.62,1.886
						c-0.058-0.03,0.255-0.886,1.202-2.22c0.939-1.33,2.598-3.085,5.072-4.673c2.472-1.576,5.758-2.931,9.576-3.609
						c3.823-0.689,8.099-0.635,12.486-0.166c4.391,0.479,8.5,1.257,12.236,1.821c3.735,0.576,7.109,0.927,9.951,0.994
						C404.783,44.742,408.231,43.731,408.283,43.966z"/>
				</g>
				<g>
					<path fill="#F97A5D" d="M358.219,71.951c-0.006,0.084-0.617,0.142-1.547-0.166c-0.23-0.081-0.502-0.187-0.755-0.419
						c-0.125-0.116-0.241-0.27-0.312-0.455c-0.102-0.259-0.094-0.553,0.007-0.777c0.03-0.045,0.028-0.152,0.088-0.154l0.18-0.005
						c0.117-0.017,0.254,0.022,0.388,0.047c0.246,0.047,0.324,0.04,0.5,0.051c0.307,0.007,0.625-0.024,0.943-0.095
						c1.299-0.274,2.17-1.22,2.56-1.997c0.409-0.784,0.445-1.372,0.554-1.366c0.077-0.009,0.229,0.617-0.11,1.561
						c-0.171,0.463-0.47,0.994-0.953,1.46c-0.48,0.465-1.145,0.848-1.901,1.012c-0.377,0.084-0.756,0.116-1.12,0.097
						c-0.16-0.008-0.409-0.04-0.483-0.056c-0.067-0.012-0.058-0.027-0.071-0.018c-0.008,0.007-0.013,0.021-0.012,0.04
						c0.028,0.09,0.076,0.176,0.146,0.253c0.139,0.157,0.34,0.274,0.538,0.373C357.663,71.73,358.234,71.848,358.219,71.951z"/>
				</g>
				<path fill="#FFFFFF" d="M353.761,72.182l7.32,2.884C361.081,75.066,354.649,79.502,353.761,72.182z"/>
				
					<ellipse transform="matrix(0.8849 0.4657 -0.4657 0.8849 75.6966 -160.6192)" fill="#F4B19F" cx="362.876" cy="72.869" rx="1.504" ry="1.01"/>
				
					<ellipse transform="matrix(0.9178 0.397 -0.397 0.9178 56.3903 -135.1486)" fill="#F4B19F" cx="354.658" cy="68.641" rx="1.504" ry="1.01"/>
				<path fill="#EDA091" d="M353.326,80.21c0,0,2.566,2.149,5.243,1.457c0,0-0.923,1.384-4.477,0.877
					C354.093,82.543,354.389,81.018,353.326,80.21z"/>
				<circle fill="#2C373F" cx="362.925" cy="68.972" r="0.58"/>
				<circle fill="#2C373F" cx="358.179" cy="67.263" r="0.58"/>
				<g>
					<path fill="#6E5395" d="M365.368,67.428c-0.179,0.076-0.525-0.343-1.049-0.682c-0.513-0.354-1.033-0.513-1.032-0.708
						c-0.017-0.186,0.709-0.336,1.413,0.136C365.407,66.644,365.547,67.372,365.368,67.428z"/>
				</g>
				<g>
					<path fill="#6E5395" d="M357.004,64.614c-0.012-0.181,0.611-0.409,1.445-0.387c0.849,0.018,1.476,0.43,1.389,0.602
						c-0.08,0.174-0.671,0.099-1.417,0.085C357.673,64.892,357.016,64.811,357.004,64.614z"/>
				</g>
				<path fill="#2C373F" d="M359.618,243.158c0,0,3.046,10.807,6.189,9.923s0.78-15.968,0.78-15.968l-3.138-4.958
					C363.449,232.155,366.397,257.404,359.618,243.158z"/>
				<path fill="#2C373F" d="M398.014,183.239c0,0,2.214-2.416,4.898-2.818c2.684-0.403,12.28-1.543,13.689-0.268
					c1.409,1.275-7.778,5.55-7.778,5.55s3.201-2.04,1.872-2.799C408.348,181.561,398.014,183.239,398.014,183.239z"/>
				<polygon fill="#2C373F" points="394.207,186.133 397.211,192.232 398.85,191.321 394.844,185.313 				"/>
				<polygon fill="#2C373F" points="360.616,227.37 353.242,234.016 355.427,235.836 361.617,229.1 				"/>
			</g>
			<g>
				<path fill="#2C373F" d="M206.451,161.207c-2.096-5.204-2.903-10.998-6.032-15.655c-4.503-6.702-13.151-10.027-16.806-17.227
					c-1.552-3.058-2.04-6.555-2.055-9.984c-0.03-6.785,2.001-13.997,7.241-18.308c6.021-4.953,15.055-4.884,22.106-1.556
					c7.051,3.328,12.438,9.369,17.018,15.679c4.58,6.31,8.591,13.08,13.925,18.767c3.955,4.216,8.646,7.851,11.625,12.805
					c8.167,13.578-0.236,30.76-14.655,35.66C226.151,185.694,210.834,172.087,206.451,161.207z"/>
				<g>
					<g>
						<path fill="#FFC5B1" d="M188.403,256.977c1.254,1.031-0.114,0.317,1.711,1.505c-0.408,4.557-4.623,7.428-4.623,7.428
							s-0.178,7.255-1.532,7.107c-1.357-0.148-0.488-6.986-0.488-6.986s-2.775,7.146-3.949,6.691
							c-1.173-0.453,3.075-8.653,3.075-8.653s-5.954,8.195-6.772,6.904c-0.816-1.291,4.422-9.2,4.422-9.2s-6.469,6.782-7.199,5.684
							c-0.73-1.095,7.72-10.527,7.72-10.527c-3.911-0.043-3.634-2.705-3.634-2.705l9.526,0.564
							C186.659,254.789,187.826,256.501,188.403,256.977z"/>
						<path fill="#FFC5B1" d="M279.407,120.149c1.63,0.286,0.365-0.254,2.48,0.361c3.473-3.156,3.013-8.116,3.013-8.116
							s5.826-4.672,4.86-5.585c-0.972-0.915-6.026,4.009-6.026,4.009s4.112-6.534,3.007-7.122c-1.105-0.587-5.162,7.701-5.162,7.701
							s2.985-9.553,1.416-9.353c-1.567,0.201-4.766,9.04-4.766,9.04s1.505-9.049,0.151-8.906
							c-1.354,0.143-3.544,11.997-3.544,11.997c-3.19-2.597-5.423-0.935-5.423-0.935l6.982,6.846
							C276.395,120.088,278.658,120.018,279.407,120.149z"/>
						<path fill="#FFC5B1" d="M239.527,159.771c2.947-0.46,11.934,5.364,9.647,17.191c-0.192,0.993-1.489,3.179-1.811,4.083
							c-0.409,1.145,2.771,5.336,2.771,5.336l-8.207,2.622c-0.35-2.48,0.238-6.103-2.414-7.179c-0.992-0.403-2.054-0.658-2.99-1.169
							c-2.527-1.38-3.877-4.399-4.914-6.87c-0.775-1.846-1.365-3.833-1.343-5.837C230.322,162.902,234.79,160.51,239.527,159.771z"
							/>
						<path fill="#FFC5B1" d="M255.962,192.162c0-4.257-1.35-5.882-5.818-5.882c-4.468,0-10.366,1.625-10.366,5.882
							c0,4.258,3.155,9.586,7.625,9.586C251.87,201.748,255.962,196.42,255.962,192.162z"/>
						<path fill="#FFC5B1" d="M252.434,184.217c0,0,13.893-14.325,16.672-28.356c2.78-14.031,7.502-36.799,7.502-36.799l5.28,1.449
							c0,0,2.502,31.115,0,35.881c-2.501,4.766-16.673,37.859-16.395,46.329L252.434,184.217z"/>
						<path fill="#FFC5B1" d="M227.668,191.152c0,0-4.724,0.794-11.949,17.208c-7.225,16.414-29.455,46.972-29.455,46.972
							l3.613,3.327c0,0,21.674-16.147,25.841-25.942c4.168-9.796,9.447-21.974,11.949-21.445
							C230.168,211.803,240.728,197.241,227.668,191.152z"/>
						<path fill="#F97A5D" d="M264.863,204.909l6.469-17.855c0,0-0.997-8.375-13.766-11.377l-7.233,10.422L264.863,204.909z"/>
						<path fill="#F97A5D" d="M229.825,189.782c0,0-7.633,0.643-13.818,14.23c0,0,6.803,9.392,11.78,9.709
							C227.787,213.721,246.272,197.921,229.825,189.782z"/>
					</g>
					<g>
						<path fill="#FFC5B1" d="M250.795,350.909c0,0-11.017,22.497-12.305,18.332c-1.286-4.168-0.861-14.173-0.17-15.601
							c0.693-1.43,5.196-7.739,5.196-7.739L250.795,350.909z"/>
						<path fill="#5D4484" d="M251.637,243.954l10.074-3.852c0,0,29.9,52.828,29.776,67.484
							c-0.124,14.656-41.066,44.001-41.066,44.001l-6.906-5.686c0,0,19.406-28.532,26.163-35.937
							c3.379-3.703-20.811-21.849-24.475-39.309C241.54,253.196,251.637,243.954,251.637,243.954z"/>
					</g>
					<g>
						<g>
							<path fill="#FFC5B1" d="M191.061,339.124c0,0-20.608,15.191-19.751,10.926c0.86-4.266,6.048-12.975,7.348-13.943
								c1.303-0.968,8.34-4.612,8.34-4.612L191.061,339.124z"/>
							<path fill="#6E5395" d="M224.225,262.661l29.808-17.275c0,0,1.184,60.008-5.972,72.983
								c-7.156,12.974-57.658,21.195-57.658,21.195l-3.405-8.069c0,0,31.158-18.563,40.724-22.197
								C237.289,305.664,224.225,262.661,224.225,262.661z"/>
						</g>
						<path fill="#6E5395" d="M241.978,233.569c0,0-21.948,7.772-17.753,29.092c4.196,21.32,11.189,25.318,11.189,25.318
							l12.587-20.654l12.637-27.046l-12.637-1.602L241.978,233.569z"/>
					</g>
					<path fill="#F97A5D" d="M252.434,184.217c0,0,16.159,9.056,16.159,29.518c0,0-2.053,23.329-5.379,28.427
						c0,0-5.408,1.32-12.151,0c-7.07-1.385-13.912-6.354-13.912-6.354l-5.522-28.562l-4.296-16.677l2.329-0.768l12.154-1.334
						c0,0-1.746,18.154,11.824,9.138c2.858-1.899-3.557-11.364-3.557-11.364L252.434,184.217z"/>
				</g>
				<polygon fill="#FFFFFF" points="262.324,106.89 296.204,126.654 315.262,90.656 283.499,73.01 				"/>
				<polygon fill="#FFFFFF" points="309.457,279.209 333.689,264.209 313.67,229.265 291.519,243.628 				"/>
				<g>
					<path fill="#2C373F" d="M190.151,130.309c0.064-0.057,0.811,0.622,1.995,2.007c1.178,1.387,2.785,3.496,4.398,6.342
						c1.619,2.834,3.222,6.43,4.365,10.604c1.184,4.144,1.978,8.801,3.798,13.286c0.946,2.216,2.09,4.279,3.453,6.103
						c1.375,1.812,2.901,3.402,4.471,4.79c3.207,2.699,6.568,4.557,9.563,5.63c2.992,1.088,5.555,1.576,7.337,1.751
						c1.781,0.197,2.786,0.226,2.788,0.342c0.004,0.073-0.998,0.226-2.826,0.191c-1.827-0.014-4.486-0.363-7.618-1.367
						c-3.134-0.99-6.675-2.822-10.061-5.581c-1.66-1.417-3.274-3.059-4.729-4.947c-1.441-1.897-2.659-4.068-3.648-6.391
						c-1.896-4.689-2.646-9.387-3.748-13.475c-1.053-4.102-2.517-7.631-3.997-10.472c-1.471-2.847-2.931-5.007-3.966-6.478
						C190.682,131.174,190.073,130.378,190.151,130.309z"/>
				</g>
				<g>
					<path fill="#2C373F" d="M231.776,107.187c0.248-0.038,0.491,3.297,2.358,8.23c0.931,2.457,2.318,5.284,4.308,8.118
						c0.995,1.419,2.141,2.817,3.437,4.21c1.287,1.4,2.689,2.82,4.014,4.415c2.657,3.217,4.485,6.694,6.206,9.763
						c1.709,3.099,3.069,6.046,3.762,8.684c0.721,2.628,0.764,4.891,0.535,6.392c-0.239,1.508-0.614,2.272-0.676,2.252
						c-0.119-0.031,0.075-0.838,0.143-2.3c0.058-1.459-0.127-3.585-0.934-6.07c-0.781-2.494-2.183-5.307-3.935-8.34
						c-1.778-3.032-3.622-6.439-6.16-9.505c-1.275-1.535-2.656-2.95-3.951-4.385c-1.303-1.427-2.487-2.913-3.485-4.399
						c-2.004-2.978-3.342-5.944-4.18-8.51c-0.857-2.564-1.223-4.728-1.395-6.219C231.652,108.029,231.698,107.194,231.776,107.187z"
						/>
				</g>
				<g>
					<path fill="#F97A5D" d="M242.162,172.626c-0.013-0.096,0.539-0.183,1.06-0.796c0.12-0.14,0.241-0.346,0.24-0.467
						c-0.003-0.129-0.094-0.353-0.248-0.482c-0.162-0.144-0.34-0.214-0.576-0.19c-0.243,0.018-0.541,0.139-0.929,0.197
						c-0.85,0.113-1.513-0.367-1.949-0.756c-0.448-0.409-0.79-0.824-1.045-1.197c-0.507-0.749-0.666-1.289-0.587-1.329
						c0.089-0.048,0.396,0.399,0.968,1.027c0.286,0.312,0.647,0.67,1.074,1.015c0.42,0.335,0.934,0.639,1.447,0.558
						c0.272-0.034,0.589-0.161,0.975-0.188c0.393-0.038,0.829,0.142,1.069,0.413c0.255,0.275,0.398,0.601,0.369,0.986
						c-0.077,0.395-0.285,0.578-0.458,0.75C242.824,172.822,242.138,172.716,242.162,172.626z"/>
				</g>
				<path fill="#FFFFFF" d="M246.166,173.19l-6.507,2.366C239.66,175.556,245.181,180.386,246.166,173.19z"/>
				
					<ellipse transform="matrix(0.8849 -0.4659 0.4659 0.8849 -53.4545 130.7039)" fill="#F4B19F" cx="237.68" cy="173.488" rx="1.504" ry="1.01"/>
				
					<ellipse transform="matrix(0.9243 -0.3816 0.3816 0.9243 -46.0828 106.4518)" fill="#F4B19F" cx="245.334" cy="169.405" rx="1.504" ry="1.01"/>
				<path fill="#EDA091" d="M239.852,181.997c0,0,2.177,0.443,4.952-0.251c0,0-1.368,1.33-3.604,1.638
					C241.201,183.384,240.7,182.459,239.852,181.997z"/>
				<circle fill="#2C373F" cx="241.701" cy="167.813" r="0.58"/>
				<circle fill="#2C373F" cx="237.329" cy="170.328" r="0.58"/>
				<g>
					<path fill="#2C373F" d="M242.102,164.95c-0.058,0.185-0.601,0.179-1.198,0.36c-0.602,0.163-1.059,0.456-1.207,0.33
						c-0.153-0.107,0.202-0.758,1.018-0.99C241.53,164.414,242.175,164.778,242.102,164.95z"/>
				</g>
				<g>
					<path fill="#2C373F" d="M234.548,169.512c-0.145-0.108,0.083-0.73,0.639-1.352c0.562-0.636,1.282-0.848,1.357-0.671
						c0.081,0.174-0.358,0.576-0.851,1.135C235.193,169.181,234.706,169.63,234.548,169.512z"/>
				</g>
				<path fill="#FFC5B1" d="M232.094,174.344c0,0-2.087-1.753-3.089-0.167c-1.002,1.586,4.508,2.421,4.508,2.421L232.094,174.344z"
					/>
				<path fill="#6E5395" d="M181.913,334.188c0,0-2.992,1.301-3.772,2.081c-0.78,0.781-7.935,13.138-7.024,14.699
					s8.086-3.738,8.086-3.738S173.197,348.367,181.913,334.188"/>
				<path fill="#6E5395" d="M240.298,350.529c0,0-2.125,2.297-2.453,3.351c-0.328,1.054-0.915,15.321,0.618,16.28
					c1.532,0.958,5.72-6.914,5.72-6.914s-5.006,3.922-3.885-12.684"/>
			</g>
		</g>
	</g>
</g>
</svg>
