<?xml version="1.0" encoding="utf-8"?>
<!-- Generator: Adobe Illustrator 17.0.0, SVG Export Plug-In . SVG Version: 6.00 Build 0)  -->
<!DOCTYPE svg PUBLIC "-//W3C//DTD SVG 1.1//EN" "http://www.w3.org/Graphics/SVG/1.1/DTD/svg11.dtd">
<svg version="1.1" id="OBJECTS" xmlns="http://www.w3.org/2000/svg" xmlns:xlink="http://www.w3.org/1999/xlink" x="0px" y="0px"
	 width="462.065px" height="440.114px" viewBox="0 0 462.065 440.114" enable-background="new 0 0 462.065 440.114"
	 xml:space="preserve">
<g>
	<path fill="#B0B0FF" d="M354.313,56.538c-22.526-8.296-48.249-3.616-65.594,12.98c-4.628,4.429-10.911,7.166-17.853,7.166
		c-3.856,0-7.513-0.846-10.797-2.362c-22.061-10.184-47.874-8.078-66.731,7.246c-11.756,9.554-21.785,20.728-29.628,33.12
		c-13.75,21.726-33.427,39.099-57.173,48.956c-1.75,0.727-3.475,1.488-5.173,2.283c-14.583,6.83-23.705,22.296-21.684,38.271
		c0.174,1.378,0.167,2.813-0.046,4.28c-0.948,6.518-6.122,11.831-12.618,12.922c-0.258,0.043-0.514,0.08-0.77,0.111
		c-13.201,1.585-23.293,12.797-23.355,26.092c-0.001,0.121-0.001,0.242-0.001,0.363c0,52.294,52.313,94.686,116.844,94.686
		c23.43,0,45.249-5.589,63.538-15.211c20.039-10.543,42.374-16.236,64.995-15.239c2.542,0.112,5.101,0.169,7.675,0.169
		c83.536,0,151.255-59.57,151.255-133.054C447.197,124.037,408.869,76.631,354.313,56.538z M339.851,111.467
		c-10.27,1.685-19.024-7.069-17.339-17.339c1.02-6.22,6.036-11.236,12.256-12.256c10.271-1.685,19.025,7.069,17.34,17.34
		C351.087,105.431,346.071,110.447,339.851,111.467z"/>
	<g>
		<path fill="#C2C5FF" d="M210.431,111.101c-0.66-1.561-2.223-2.544-3.915-2.455l-2.961,0.156l1.634-2.339
			c1.033-1.479,1.047-3.447,0.036-4.941c-4.39-6.489-9.833-11.734-15.788-15.892c-1.523-1.064-3.524-1.154-5.132-0.224l-3.016,1.746
			l0.235-1.695c0.361-2.599-1.007-5.156-3.395-6.242c-27.678-12.589-58.694-6.58-48.288,4.799c1.021,1.116,2.246,2.019,3.555,2.777
			c2.463,1.426,8.104,4.813,14.813,9.608c1.893,1.353,4.351,1.631,6.487,0.707l0.67-0.29c0.784-0.339,1.617,0.368,1.409,1.196l0,0
			c-0.616,2.464,0.231,5.053,2.176,6.686c2.592,2.175,5.183,4.496,7.68,6.938c1.93,1.887,4.8,2.435,7.277,1.364l0.597-0.258
			c0.784-0.339,1.617,0.368,1.409,1.196l-0.751,3.003c-0.483,1.93-0.07,3.975,1.123,5.567c1.781,2.379,3.388,4.823,4.758,7.316
			c0.96,1.747,2.646,2.972,4.607,3.331l1.593,0.292c0.84,0.154,1.14,1.204,0.507,1.778l-0.236,0.214
			c-1.736,1.575-2.47,3.941-2.037,6.245c0.013,0.068,0.025,0.136,0.037,0.203c5.275,29.415,12.814,106.277,12.814,106.277
			S230.156,157.759,210.431,111.101z"/>
		<path fill="#D2D2FF" d="M210.454,111.122c-0.662-1.569-2.223-2.567-3.923-2.477l-1.175,0.062
			c-0.732,0.039-1.187-0.782-0.767-1.382l0.603-0.863c1.033-1.479,1.046-3.447,0.036-4.941c-4.391-6.492-9.832-11.736-15.784-15.894
			c-1.523-1.064-3.524-1.155-5.132-0.224l-1.442,0.835c-0.641,0.371-1.429-0.158-1.327-0.892l0,0
			c0.353-2.546-0.995-5.044-3.333-6.111c-26.666-12.16-56.464-7.01-49.375,3.499c0.648,0.96,1.77,1.513,2.924,1.41
			c10.866-0.966,26.387,1.383,40.431,8.846c1.299,0.69,2.831,0.786,4.181,0.202l3.104-1.342l-0.405,1.621
			c-0.467,1.867,0.239,3.827,1.787,4.971c3.772,2.787,7.316,6.025,10.486,9.762c1.007,1.188,2.687,1.554,4.117,0.936l1.022-0.442
			c0.873-0.377,1.8,0.409,1.57,1.332l-0.959,3.835c-0.267,1.068-0.111,2.197,0.436,3.153l0.008,0.015
			c16.639,29.111,7.524,81.356-0.753,113.962c-0.094,0.369-0.119,0.751-0.08,1.13l0.031,0.296c0.368,3.549,5.362,4.003,6.355,0.577
			C211.129,205.255,225.171,145.989,210.454,111.122z"/>
	</g>
	<g>
		<path fill="#FFFFFF" d="M210.594,192.487c-6.724-18.245-14.666-31.455-23.173-40.922c-0.565-0.629-1.469-0.822-2.25-0.499
			l-3.442,1.42c-1.689,0.697-3.354-1.045-2.581-2.701l1.416-3.033c0.38-0.813,0.178-1.79-0.507-2.37
			c-10.378-8.799-21.289-12.866-31.661-14.303c-0.725-0.1-1.446,0.215-1.879,0.805l-0.973,1.324
			c-1.082,1.473-3.409,0.848-3.608-0.968l0,0c-0.109-0.998-0.942-1.775-1.945-1.791c-8.018-0.122-15.498,1.07-21.885,2.492
			c-9.058,2.018-31.933,12.939-31.608,22.507c0.264,7.764,35.069,6.391,64.899,24.916c0.625,0.388,1.41,0.411,2.049,0.047
			l1.488-0.847c1.588-0.904,3.459,0.615,2.9,2.355l-0.298,0.926c-0.261,0.814,0.027,1.697,0.709,2.213
			c4.457,3.37,8.722,7.267,12.648,11.805c0.954,1.103,1.882,2.248,2.791,3.428c0.483,0.627,1.283,0.92,2.053,0.737l2.335-0.553
			c1.778-0.422,3.147,1.562,2.122,3.075l-1.322,1.951c-0.447,0.66-0.456,1.516-0.03,2.19c19.582,31,27.484,78.42,29.898,96.534
			c0.276,2.068,3.123,2.386,3.863,0.435C218.649,287.701,230.19,245.661,210.594,192.487z"/>
		<path fill="#D2D2FF" d="M210.594,192.487c-6.724-18.245-14.666-31.455-23.173-40.922c-0.565-0.629-1.469-0.822-2.25-0.499
			l-3.442,1.42c-1.689,0.697-3.354-1.045-2.581-2.701l1.416-3.033c0.38-0.813,0.178-1.79-0.507-2.37
			c-10.378-8.799-21.289-12.866-31.661-14.303c-0.725-0.1-1.446,0.215-1.879,0.805l-0.973,1.324
			c-1.082,1.473-3.409,0.848-3.608-0.968l0,0c-0.109-0.998-0.942-1.775-1.945-1.791c-8.018-0.122-15.498,1.07-21.885,2.492
			c-9.058,2.018-31.933,12.939-31.608,22.507c0.046,1.351,1.138,2.425,3.069,3.376c4.169,2.053,9.038,2.042,13.366,0.35
			c2.533-0.991,4.816-1.72,6.576-2.113c4.049-0.902,8.538-1.711,13.323-2.152c0.797-0.074,1.481-0.604,1.731-1.365l2.125-6.449
			c0.572-1.736,2.978-1.863,3.731-0.198l3.005,6.651c0.306,0.677,0.959,1.12,1.699,1.17c3.323,0.225,6.719,0.695,10.154,1.483
			c0.699,0.161,1.431-0.052,1.921-0.576l4.044-4.324c1.248-1.335,3.485-0.439,3.468,1.388l-0.048,5.15
			c-0.008,0.81,0.476,1.535,1.218,1.859c7.456,3.256,14.909,8.329,21.989,15.94c0.442,0.475,1.086,0.716,1.729,0.63l5.516-0.731
			c1.811-0.24,2.973,1.871,1.801,3.273l-2.19,2.62c-0.593,0.709-0.619,1.724-0.075,2.471c5.001,6.871,9.734,15.248,14.055,25.411
			c0.227,0.533,0.674,0.949,1.225,1.127l5.672,1.831c1.739,0.562,1.881,2.967,0.22,3.729l-2.11,0.969
			c-0.945,0.434-1.393,1.521-1.043,2.501c13.412,37.604,11.314,69.492,6.855,90.307c-0.045,0.209-0.055,0.424-0.032,0.637
			c0.084,0.777,0.124,1.195,0.124,1.195S235.737,260.715,210.594,192.487z"/>
	</g>
	<g>
		<path fill="#C2C5FF" d="M219.219,184.818c8.172-13.161,16.488-22.198,24.645-28.223c0.542-0.4,1.278-0.406,1.836-0.029l2.459,1.66
			c1.207,0.815,2.785-0.278,2.447-1.694l-0.619-2.594c-0.166-0.695,0.148-1.425,0.775-1.768c9.51-5.204,18.678-6.629,27.003-6.087
			c0.582,0.038,1.094,0.399,1.337,0.93l0.547,1.19c0.608,1.323,2.525,1.209,2.971-0.177l0,0c0.245-0.761,1.02-1.235,1.805-1.086
			c6.277,1.19,11.924,3.319,16.68,5.453c6.746,3.027,22.848,15.217,21.06,22.632c-1.451,6.017-28.394-0.634-54.644,9.043
			c-0.55,0.203-1.166,0.094-1.607-0.292l-1.025-0.899c-1.095-0.96-2.798-0.074-2.641,1.373l0.084,0.77
			c0.074,0.678-0.293,1.32-0.908,1.614c-4.019,1.916-7.972,4.273-11.763,7.186c-0.921,0.708-1.83,1.453-2.728,2.228
			c-0.477,0.412-1.148,0.512-1.72,0.246l-1.734-0.806c-1.32-0.614-2.706,0.714-2.149,2.059l0.719,1.735
			c0.243,0.587,0.113,1.256-0.327,1.714c-20.252,21.055-34.02,56.796-38.808,70.546c-0.547,1.57-2.82,1.362-3.084-0.279
			C197.67,257.835,195.401,223.176,219.219,184.818z"/>
		<path fill="#D2D2FF" d="M219.219,184.818c8.172-13.161,16.488-22.198,24.645-28.223c0.542-0.4,1.278-0.406,1.836-0.029l2.459,1.66
			c1.207,0.815,2.785-0.278,2.447-1.694l-0.619-2.594c-0.166-0.695,0.148-1.425,0.775-1.768c9.51-5.204,18.678-6.629,27.003-6.087
			c0.582,0.038,1.094,0.399,1.337,0.93l0.547,1.19c0.608,1.323,2.525,1.209,2.971-0.177l0,0c0.245-0.761,1.02-1.235,1.805-1.086
			c6.277,1.19,11.924,3.319,16.68,5.453c6.746,3.027,22.848,15.217,21.06,22.632c-0.253,1.047-1.277,1.71-2.936,2.143
			c-3.583,0.934-7.381,0.145-10.488-1.87c-1.818-1.179-3.483-2.115-4.794-2.703c-3.015-1.353-6.389-2.703-10.053-3.815
			c-0.61-0.185-1.059-0.709-1.132-1.343l-0.625-5.373c-0.168-1.446-2.026-1.932-2.88-0.752l-3.411,4.709
			c-0.347,0.479-0.928,0.721-1.514,0.641c-2.629-0.357-5.356-0.535-8.163-0.47c-0.571,0.013-1.108-0.27-1.407-0.757l-2.463-4.023
			c-0.76-1.242-2.65-0.902-2.93,0.527l-0.788,4.027c-0.124,0.633-0.617,1.121-1.248,1.255c-6.341,1.346-12.97,4.111-19.717,8.916
			c-0.421,0.3-0.962,0.384-1.451,0.215l-4.188-1.455c-1.375-0.478-2.621,0.983-1.93,2.266l1.289,2.395
			c0.349,0.648,0.207,1.444-0.338,1.94c-5.005,4.561-10.041,10.34-15.043,17.579c-0.263,0.38-0.678,0.632-1.137,0.683l-4.72,0.52
			c-1.447,0.159-1.944,2.014-0.77,2.875l1.491,1.094c0.668,0.49,0.843,1.41,0.413,2.119c-16.495,27.198-19.969,52.421-19.826,69.38
			c0.001,0.17-0.025,0.34-0.077,0.502c-0.19,0.593-0.288,0.913-0.288,0.913S188.659,234.035,219.219,184.818z"/>
	</g>
	<path fill="#D2F0FF" d="M455.3,377.009H117.09c-1.033,0-1.871-0.838-1.871-1.871l0,0c0-1.033,0.838-1.871,1.871-1.871H455.3
		c1.033,0,1.871,0.838,1.871,1.871l0,0C457.171,376.172,456.334,377.009,455.3,377.009z"/>
	<g>
		<path fill="#5046AF" d="M414.901,357.849H217.848c-8.919,0-16.15-7.231-16.15-16.15V221.185c0-8.919,7.231-16.15,16.15-16.15
			h197.052c8.919,0,16.15,7.231,16.15,16.15v120.514C431.051,350.618,423.82,357.849,414.901,357.849z"/>
		<rect x="213.642" y="216.994" fill="#C2C5FF" width="205.465" height="128.895"/>
		<rect x="213.642" y="333.568" fill="#B0B0FF" width="205.465" height="12.321"/>
		<rect x="213.642" y="216.994" fill="#B0B0FF" width="205.465" height="6.116"/>
		<path fill="#C2C5FF" d="M428.789,373.267h-224.83c-8.515,0-15.419-6.903-15.419-15.419l0,0h255.667l0,0
			C444.208,366.364,437.305,373.267,428.789,373.267z"/>
		<path fill="#B0B0FF" d="M428.79,367.959h-224.83c-6.647,0-12.295-4.214-14.46-10.11h-0.958c0,8.515,6.903,15.419,15.419,15.419
			h224.83c8.515,0,15.418-6.903,15.418-15.419h-0.958C441.084,363.745,435.437,367.959,428.79,367.959z"/>
		<rect x="195.828" y="354.827" fill="#B0B0FF" width="241.092" height="3.022"/>
		<path fill="#5046AF" d="M330.898,363.01H301.85c-2.851,0-5.162-2.311-5.162-5.162l0,0h39.371l0,0
			C336.06,360.7,333.749,363.01,330.898,363.01z"/>
		<rect x="220.945" y="349.96" fill="#8383DD" width="28.201" height="4.866"/>
		<rect x="384.181" y="349.96" fill="#8383DD" width="28.201" height="4.866"/>
		<g>
			<g>
				<path fill="#827DDC" d="M370.655,312.68h-77.846v-13.702h77.846c3.333,0,6.035,2.702,6.035,6.035v1.632
					C376.69,309.978,373.988,312.68,370.655,312.68z"/>
				<path fill="#5046AF" d="M293.407,298.978h-46.579v2.602h42.862v8.498h-42.862v2.602h46.579c1.844,0,3.34-1.495,3.34-3.34v-7.023
					C296.747,300.473,295.252,298.978,293.407,298.978z"/>
				<rect x="248.908" y="301.58" fill="#FFFFFF" width="43.901" height="8.498"/>
				<rect x="248.908" y="301.58" fill="#C2C5FF" width="43.901" height="1.995"/>
			</g>
			<g>
				<path fill="#5046AF" d="M348.907,298.978h-49.776v-13.702h49.776c3.333,0,6.035,2.702,6.035,6.035v1.632
					C354.942,296.276,352.24,298.978,348.907,298.978z"/>
				<path fill="#5046AF" d="M299.73,285.276h-46.579v2.602h42.862v8.498h-42.862v2.602h46.579c1.844,0,3.34-1.495,3.34-3.34v-7.023
					C303.069,286.771,301.574,285.276,299.73,285.276z"/>
				<rect x="255.23" y="287.878" fill="#FFFFFF" width="43.901" height="8.498"/>
				<rect x="255.23" y="287.878" fill="#C2C5FF" width="43.901" height="1.995"/>
			</g>
			<g>
				<polygon fill="#827DDC" points="245.137,267.507 245.137,270.881 308.338,270.881 308.338,281.901 245.137,281.901 
					245.137,285.276 309.889,285.276 309.889,267.507 				"/>
				<path fill="#5046AF" d="M309.89,285.276h42.349c3.032,0,5.49-2.458,5.49-5.49v-6.789c0-3.032-2.458-5.49-5.49-5.49H309.89
					V285.276z"/>
				<rect x="309.89" y="270.881" fill="#C2C5FF" width="43.901" height="11.02"/>
				<rect x="309.89" y="270.881" fill="#827DDC" width="43.901" height="2.587"/>
				<rect x="248.512" y="270.881" fill="#FFFFFF" width="65.024" height="11.02"/>
				<rect x="248.512" y="270.881" fill="#C2C5FF" width="65.024" height="2.587"/>
			</g>
			<g>
				<polygon fill="#827DDC" points="265.482,312.68 265.482,316.055 328.684,316.055 328.684,330.193 265.482,330.193 
					265.482,333.568 330.235,333.568 330.235,312.68 				"/>
				<path fill="#5046AF" d="M330.235,333.568h42.349c3.032,0,5.49-2.458,5.49-5.49v-9.908c0-3.032-2.458-5.49-5.49-5.49h-42.349
					V333.568z"/>
				<rect x="330.235" y="316.055" fill="#C2C5FF" width="43.901" height="14.139"/>
				<rect x="330.235" y="316.055" fill="#827DDC" width="43.901" height="2.587"/>
				<rect x="268.857" y="316.055" fill="#FFFFFF" width="65.024" height="14.139"/>
				<rect x="268.857" y="316.055" fill="#C2C5FF" width="65.024" height="2.587"/>
			</g>
		</g>
		<linearGradient id="SVGID_1_" gradientUnits="userSpaceOnUse" x1="310.5919" y1="219.4667" x2="223.8873" y2="305.2867">
			<stop  offset="0" style="stop-color:#FFFFFF"/>
			<stop  offset="1" style="stop-color:#FFFFFF;stop-opacity:0"/>
		</linearGradient>
		<polygon opacity="0.51" fill="url(#SVGID_1_)" points="282.166,216.994 213.642,285.518 213.642,345.889 213.791,345.889 
			342.685,216.994 		"/>
		<linearGradient id="SVGID_2_" gradientUnits="userSpaceOnUse" x1="344.2708" y1="253.4929" x2="257.5661" y2="339.3129">
			<stop  offset="0" style="stop-color:#FFFFFF"/>
			<stop  offset="1" style="stop-color:#FFFFFF;stop-opacity:0"/>
		</linearGradient>
		<polygon opacity="0.51" fill="url(#SVGID_2_)" points="232.793,345.889 270.38,345.889 399.275,216.994 361.688,216.994 		"/>
		<polygon opacity="0.51" fill="#FFFFFF" points="394.939,345.889 419.107,321.721 419.107,284.134 357.351,345.889 		"/>
	</g>
	<g>
		<polygon fill="#FAB9AF" points="193.705,232.75 182.726,155.609 153.107,151.543 137.702,232.193 		"/>
		<path fill="#FAB9AF" d="M170.811,352.282l0.032,8.694c0.007,1.769-0.234,3.53-0.714,5.232l-0.756,2.678
			c-0.62,2.199,1.032,4.381,3.317,4.373c5.922-0.021,16.044-0.006,18.653-0.001c0.427,0.001,0.845-0.287,0.882-0.713
			c0.22-2.539-7.112-4.238-12.635-6.376c-4.207-1.629-3.982-9.19-3.464-13.605c0.196-1.668-1.195-3.088-2.869-2.949l0,0
			C171.87,349.731,170.806,350.891,170.811,352.282z"/>
		<path fill="#FAB9AF" d="M130.109,349.843l-2.996,9.947c-0.132,0.44-0.33,0.857-0.586,1.237l-2.124,3.154
			c-1.348,2.002-0.378,4.738,1.931,5.442c0,0,4.282,1.506,8.697,2.957c4.519,1.485,10.202,0.244,10.202-0.949
			c0-2.649-2.47-0.547-6.608-3.313c-1.387-0.927-2.818-1.897-4.093-2.899c-3.561-2.795-0.452-9.872,1.728-13.858
			c0.784-1.433-0.048-3.212-1.646-3.553l-1.032-0.22C132.066,347.466,130.556,348.359,130.109,349.843z"/>
		<path fill="#5046AF" d="M160.71,233.497l32.821-2.755c0,0,3.305,23.888-4.99,67.129c-3.89,20.278-11.997,59.028-11.997,59.028
			c-2.009,0.879-4.052,1.1-6.133,0.581c0,0-0.616-17.093-0.992-35.5c-0.361-17.654-0.458-36.517-1.583-42.689
			C165.538,266.684,160.71,233.497,160.71,233.497z"/>
		<path fill="#41378C" d="M177.603,282.509c8.204-31.645-2.539-47.663-2.539-47.663l-14.353-1.35c0,0,4.828,33.188,7.126,45.795
			c0.701,3.844,1.003,12.613,1.218,22.946C169.184,308.494,174.965,292.682,177.603,282.509z"/>
		<path fill="#5046AF" d="M167.485,233.913c3.389,18.186,10.958,45.38-3.623,70.926c-14.581,25.547-29.896,52.106-29.896,52.106
			c-1.973,0.08-3.762-0.635-5.425-1.897c0,0,2.557-11.581,6.252-25.105c4.228-15.471,9.583-33.667,8.057-43.155
			c-2.859-17.781-6.144-41.463-5.149-52.963C138.698,222.325,165.703,224.35,167.485,233.913z"/>
		<path fill="#FFFFFF" d="M194.838,230.786l-12.112-75.177l-29.619-4.065l-15.918,79.382c-0.299,1.492,0.667,2.94,2.162,3.224
			c5.514,1.045,18.816,3.228,33.702,3.228c11.113,0,17.358-2.161,20.199-3.529C194.404,233.294,195.041,232.047,194.838,230.786z"/>
		<path fill="#FAB9AF" d="M136.217,259.883c-0.453-1.941-0.695-3.936-0.954-4.686c-0.108-0.313-0.651-1.061-0.793-1.29
			c-0.418-0.67-1.17-1.64-1.17-2.429l-0.055-3.318c0-1.604-0.775-2.82-2.379-2.82l0,0c-1.737,0-2.526,1.482-2.325,3.207v2.322
			c0.161,1.381-0.316,2.701-0.724,4.03c-0.83,2.704-0.141,5.899,0.653,8.411c0.498,1.576,2.504,2.541,5.246,3.677
			c1.347,0.558,3.602,1.022,2.737-0.598c-0.725-1.358-4.761-3.351-3.553-7.627c0.059-0.21,0.25-0.738,0.518-0.746
			c0.799-0.024,0.945,1.748,1.327,2.613c0.537,1.213,1.387,1.705,1.907,1.576C137.202,262.069,136.541,261.268,136.217,259.883z"/>
		<path fill="#827DDC" d="M162.36,156.226c0,5.416-0.984,10.779-2.834,15.869c-3.619,9.958-9.047,28.787-5.821,45.376
			c4.645,23.888,10.617,33.545,2.876,39.112c-7.742,5.567-22.589-3.722-23.017-6.819c-0.429-3.097,2.889-41.136,6.649-57.617
			c3.76-16.481,14.293-40.173,14.293-40.173l4.462,0.477C160.897,152.657,162.36,154.285,162.36,156.226L162.36,156.226z"/>
		<path fill="#6E64C3" d="M147.486,197.476c2.831-7.125,6.05-16.089,8.495-22.911c1.806-5.039,2.059-9.577,2.059-14.931
			l-3.946-8.035c0,0-10.123,24.067-13.883,40.547C136.452,208.627,143.754,206.872,147.486,197.476z"/>
		<path fill="#827DDC" d="M148.442,153.592c0,0-25.799,34.681-25.751,54.096c0.029,11.702,4.327,35.519,5.348,41.011
			c0.13,0.701,0.701,1.233,1.409,1.308c0.453,0.048,0.977,0.088,1.46,0.088c0.49,0,1.125-0.07,1.714-0.154
			c0.974-0.14,1.685-0.989,1.665-1.973c-0.151-7.273-0.614-35.964,1.314-41.705c2.212-6.586,23.715-37.983,24.138-44.91
			C160.161,154.425,154.811,148.129,148.442,153.592z"/>
		<path fill="#827DDC" d="M174.69,154.506c0,0,5.137,11.102,3.345,27.052c-1.792,15.95-5.943,64.52,8.571,71.855
			c4.596,2.323,15.092-7.963,15.092-11.778c0-3.815-3.503-16.589-6.823-28.201c-3.319-11.612-11.319-57.711-11.319-57.711
			L174.69,154.506z"/>
		<path fill="#6E64C3" d="M196.005,217.413c-0.376-1.332-0.753-2.663-1.13-3.979c-0.648-2.267-1.508-5.865-2.47-10.169
			c-5.279,2.479-10.597,4.873-15.729,7.486c-0.192,1.247-0.543,3.809-0.57,7.891C182.752,218.367,189.389,217.988,196.005,217.413z"
			/>
		<path fill="#FAB9AF" d="M214.772,200.068c-0.963-3.151-6.211-1.83-11.964-0.071c-3.461,1.058-21.553,8.011-27.271,10.216
			c-0.846,0.326-1.237,0.006-2.115,0.23c-1.334,0.341-5.746,1.594-5.193,7.7c0.151,1.669,0.93,1.818,1.577,3.364
			c0.463,1.107,1.893,1.717,2.629,1.963c1.114,0.371,1.462,1.74,2.033,1.612c1.358-0.304,1.201-4.042,1.167-5.331
			c-0.02-0.766-0.505-3.985-0.505-3.985c0.15-0.605,0.63-1.066,1.242-1.184c4.912-0.951,26.201-4.545,29.73-5.624
			C211.853,207.199,215.736,203.219,214.772,200.068z"/>
		<g>
			<path fill="#5046AF" d="M156.075,122.288c0,0,0.56,4.462-2.13,7.727c-2.69,3.265,1.219,6.306,2.13,8.527
				c0.911,2.222-0.216,5.518,2.335,7.027c2.552,1.509,9.829,1.906,10.985-0.748C170.551,142.167,164.286,120.767,156.075,122.288z"
				/>
			<path fill="#5046AF" d="M185.39,128.167c0.394,14.598-13.192,17.403-21.094,17.403c-7.902,0-8.22-17.502-8.22-23.809
				c0-6.307,6.21-7.301,14.112-7.301c6.223,0,12.112,4.824,14.539,9.449C185.381,125.157,185.354,126.827,185.39,128.167z"/>
			<path fill="#FAB9AF" d="M170.556,120.099c-6.61,0-9.076,4.705-9.203,13.41c-0.047,3.26,1.419,6.49,2.599,8.552
				c0.877,1.532,1.117,3.347,0.617,5.04l-1.452,4.913c-0.987,4.557,1.177,7.057,4.373,7.965c1.583,0.45,3.479,0.101,4.861-0.792
				c1.643-1.062,1.778-3.346,1.473-5.279l-0.375-1.401c-0.505-1.887,0.589-3.921,2.497-4.338c5.09-1.113,5.819-6.419,7.183-14.659
				C184.551,124.92,177.166,120.099,170.556,120.099z"/>
			<path fill="#5046AF" d="M185.948,116.276l-3.791,1.153c-1.393,0.423-2.879,0.433-4.277,0.027l-7.569-2.196
				c-4.584,0-12.156,2.589-11.199,9.204l0.845,4.679c0.337,1.869,1.896,3.268,3.788,3.429c0,0,0.001,0,0.001,0
				c0.175,0.647,0.762,1.096,1.432,1.096c0.819,0,1.483-0.664,1.483-1.483l0,0c0-2.11,1.481-3.911,3.541-4.373
				c2.525-0.567,5.223-0.702,8.045,0.057c5.261,1.413,10.808-1.847,11.333-7.268c0.033-0.343,0.05-0.692,0.05-1.045
				C189.63,117.368,187.823,115.759,185.948,116.276z"/>
			<path fill="#FAB9AF" d="M164.997,133.669c0,2.018-0.751,3.654-2.695,3.654c-1.943,0-3.19-2.776-3.19-4.794
				c0-2.018,1.247-2.515,3.19-2.515C164.245,130.015,164.997,131.651,164.997,133.669z"/>
			<path fill="#FA968C" d="M181.181,139.701c0.206,0.945-0.514,1.839-1.481,1.839l0,0c-0.803,0-1.467-0.627-1.514-1.429
				l-0.005-6.439c0-0.24,0.095-0.47,0.264-0.639c0.169-0.169,0.399-0.265,0.639-0.265c0.343,0,0.639,0.239,0.712,0.573
				L181.181,139.701z"/>
		</g>
		<path fill="#827DDC" d="M180.913,156.181c0,0,4.178-2.61,11.405,4.429c7.227,7.038,22.655,33.249,24.148,41.212
			c1.493,7.963-39.84,13.438-39.84,13.438c-1.194-1.29-1.865-3.146-1.936-5.649c0,0,25.519-9.535,26.017-12.892
			c0.498-3.357-19.095-23.168-20.647-26.028C177.261,165.53,176.216,159.997,180.913,156.181z"/>
		<path fill="#FAB9AF" d="M170.198,212.109c0,0-4.918,4.475-5.089,4.863c-0.363,0.826,0.52,1.705,1.149,1
			c0.876-0.982,3.529-2.198,4.372-0.808L170.198,212.109z"/>
	</g>
	<circle fill="#B0B0FF" cx="349.638" cy="19.153" r="13.578"/>
	<circle fill="#B0B0FF" cx="33.019" cy="145.881" r="23.085"/>
	<circle fill="#B0B0FF" cx="57.261" cy="95.369" r="8.399"/>
	<g>
		<path fill="#FAB9AF" d="M397.064,414.215c-1.972,0.769-4.259,1.496-5.829,2.891c-0.813,0.722-1.884,1.068-2.97,1.014
			c-0.796-0.039-1.656-0.065-2.563-0.078c-1.203-0.018-2.191,0.959-2.191,2.162l0,0c0,1.338,1.212,2.391,2.525,2.132
			c1.355-0.267,2.449-0.707,3.418-1.077c0.541-0.207,1.138-0.229,1.689-0.051c2.667,0.86,5.236-1.078,5.359-1.111
			c0,0,1.775-0.417,2.977-1.085c0.594-0.33,1.342-0.29,1.373-0.723c0.029-0.404-0.805-0.86-1.529-0.763
			c-1.279,0.172-3.135,0.723-3.465,0.231c-0.518-0.771,1.128-1.276,2.893-1.853c1.765-0.577,4.224,1.241,5.447-0.47
			C404.474,415.044,399.023,413.451,397.064,414.215z"/>
		<path fill="#D2F0FF" d="M447.6,395.23c-0.906-0.23-1.838,0.27-2.147,1.153l-9.749,28.824c-0.327,0.966-0.02,2.033,0.77,2.678
			l2.27,1.854l11.709-33.787L447.6,395.23z"/>
		<path fill="#827DDC" d="M381.642,400.913c1.801-5.007,0.62-10.421-2.708-14.193c-2.857-3.238-4.472-7.376-4.602-11.692
			c-0.204-6.785-4.501-13.06-11.253-15.488c-3.477-1.25-13.612-4.592-13.612-4.592s5.139-3.482,0.36-3.743
			c-3.918-0.214-11.287,3.539-12.282,12.132c-0.337,2.907-1.477,5.666-3.093,8.105c-1.107,1.67-1.888,3.626-2.218,5.819
			c-0.87,5.788,2.064,11.647,7.207,14.441c0.244,0.132,0.506,0.268,0.783,0.406c6.37,3.169,9.381,10.435,7.255,17.224
			c-0.975,3.112-1.175,6.29,0.456,8.775c3.508,5.345,10.445,7.652,16.446,5.446c4.735-1.741,7.866-5.634,8.875-10.048
			c0.55-2.407,1.74-4.666,3.698-6.169C379.031,405.743,380.691,403.559,381.642,400.913z"/>
		<path fill="#41378C" d="M341.261,397.241c-0.589-3.512-0.331-7.145,1.002-10.447c0.87-2.155,2.203-4.211,4.177-4.568
			c3.963-0.716,14.609,25.943,16.557,31.645c0.235,0.688,0.843,1.171,1.566,1.25l22.05,2.412c0.807,1.718,1.053,3.417,0.498,5.087
			l-25.244,3.996c-2.039,0.35-4.108-0.361-5.515-1.879C352.07,420.116,343.302,409.403,341.261,397.241z"/>
		<path fill="#D2F0FF" d="M455.3,435.787H117.09c-1.033,0-1.871-0.838-1.871-1.871l0,0c0-1.033,0.838-1.871,1.871-1.871H455.3
			c1.033,0,1.871,0.838,1.871,1.871l0,0C457.171,434.949,456.334,435.787,455.3,435.787z"/>
		<path fill="#FAB9AF" d="M158.403,428.192c-0.065-1.427-1.179-2.575-2.603-2.698c-2.848-0.246-7.547-0.934-10.852-2.854
			c-5.045-2.93-6.427-2.025-10.183,1.747c-3.756,3.772-9.264,4.083-12.551,4.508c-3.287,0.425-4.608,3.029,0.581,3.147
			c4.701,0.107,21.022-2.535,32.405-0.914C156.951,431.378,158.484,429.958,158.403,428.192L158.403,428.192z"/>
		<path fill="#FAB9AF" d="M197.499,357.466c0.546-0.842,0.57-1.913,0.053-2.773c-1.376-2.288-3.95-7.064-4.294-11.296
			c-0.473-5.815-2.006-6.433-7.246-7.364c-5.241-0.931-7.846-4.185-10.072-6.642c-2.225-2.457-5.117-2.055-2.252,2.273
			c2.517,3.803,13.684,15.281,19.311,25.637C193.948,359.047,196.417,359.134,197.499,357.466L197.499,357.466z"/>
		<path fill="#827DDC" d="M362.113,364.885c-4.015,11.164-14.232,10.318-20.476,8.072c-6.244-2.245-2.473-11.316-0.748-16.113
			c1.725-4.797,7.954-7.013,14.198-4.767C361.331,354.322,363.838,360.088,362.113,364.885z"/>
		<path fill="#827DDC" d="M191.044,354.827c1.293-2.011,3.063-3.176,5.601-2.976c0,0,25.994,38.936,31.672,43.959
			c5.678,5.023,57.878,2.241,57.878,2.241l0.885,28.423c0,0-55.518,1.082-69.673-13.717
			C203.25,397.958,191.044,354.827,191.044,354.827z"/>
		<path fill="#6E64C3" d="M286.195,398.051c0,0-12.026,0.641-25.161,0.752c-0.842,0.42-20.466,10.035-31.063,10.439
			c-15.605,0.594-20.487-7.74-20.487-7.74c2.518,4.468,5.183,8.393,7.922,11.256c14.156,14.799,69.673,13.717,69.673,13.717
			L286.195,398.051z"/>
		<path fill="#827DDC" d="M308.545,428.459l-4.24-26.884c0,0-8.795-10.493-31.368-3.848c-22.573,6.645-36.982,14.754-48.019,15.95
			c-11.037,1.195-70.91,11.014-70.91,11.014c-1.177,2.419-1.105,4.757,0,7.027l120.428,0.671
			C274.436,432.389,297.036,432.398,308.545,428.459z"/>
		<path fill="#5046AF" d="M345.938,381.258l-0.303-0.155c-6.629-3.389-14.749-2.89-20.568,1.754
			c-0.333,0.266-0.659,0.542-0.977,0.83l-8.6,7.775c-1.405,1.271-3.11,2.174-4.965,2.559c-1.284,0.267-2.559,0.738-3.788,1.439
			c-0.038,0.021-0.074,0.042-0.11,0.062c-3.562,1.991-5.43-1.929-7.102,0c-1.671,1.929-12.446-1.186-12.446-1.186
			s-10.396-0.075-5.087,14.436c5.309,14.511,15.262,23.273,22.229,23.273c3.845,0,10.474-3.062,15.642-5.805
			c0.564-0.299,1.094-0.64,1.593-1.016c1.749-1.318,3.625-2.458,5.693-3.179l1.588-0.554c2.748-0.959,5.732-0.882,8.459,0.133
			c3.654,1.36,9.054,1.908,11.162-5.333l2.265-27.131C350.693,386.78,348.204,381.989,345.938,381.258z"/>
		<path fill="#41378C" d="M339.139,382.806c-2.025,0.738-4.925,4.247-7.18,7.358c-1.978,2.728-3.514,5.735-4.778,8.859
			c-4.038,9.982-10.948,19.133-20.349,24.397c-4.566,2.557-8.843,3.628-12.984,3.703c3.602,3.188,7.281,4.922,10.374,4.922
			c3.845,0,10.474-3.062,15.642-5.805c0.564-0.299,1.094-0.64,1.592-1.016c1.749-1.318,3.625-2.458,5.693-3.18l1.588-0.554
			c2.748-0.959,5.732-0.882,8.459,0.133c3.654,1.36,9.054,1.908,11.162-5.333l2.265-27.131c0.047-1.643-1.125-4.435-2.601-6.247
			C344.884,381.606,342.75,381.49,339.139,382.806z"/>
		<path fill="#FAB9AF" d="M355.031,355.428c-5.835-2.205-9.582,1.126-12.597,8.768c-1.129,2.862-0.912,6.202-0.558,8.416
			c0.263,1.645-0.13,3.327-1.136,4.654l-2.92,3.853c-2.391,3.693-1.315,6.622,1.203,8.489c1.247,0.925,3.037,1.25,4.555,0.922
			c1.805-0.389,2.686-2.36,3.061-4.168l0.136-1.362c0.184-1.834,1.828-3.265,3.651-2.997c1.418,0.209,2.66,0.952,3.877,0.653
			c1.192-0.293,6.123-6.414,7.837-14.177C363.912,360.458,360.866,357.633,355.031,355.428z"/>
		<path fill="#FA968C" d="M356.877,375.973c-0.179,0.895-1.139,1.396-1.976,1.03l0,0c-0.695-0.303-1.032-1.096-0.769-1.807
			l2.429-5.57c0.09-0.207,0.26-0.37,0.47-0.453c0.211-0.083,0.445-0.078,0.653,0.012c0.296,0.129,0.462,0.448,0.399,0.765
			L356.877,375.973z"/>
		<path fill="#827DDC" d="M368.652,357.428c-1.219-0.822-2.556-1.129-3.826-1.019c-3.124,0.27-6.27,0.14-9.221-0.921l-0.4-0.144
			c-3.261-1.173-6.838-1.113-10.058,0.167l0,0c-2.377,0.945-3.438,3.72-2.298,6.01l2.08,4.176c0.288,0.577,1.127,0.528,1.345-0.079
			l0.656-1.828c0.33-0.918,1.282-1.456,2.238-1.265l0.953,0.19c1.103,0.22,2.227,0.127,3.327-0.108
			c1.512-0.323,3.102-0.174,4.49,0.542c1.268,0.654,1.979,1.532,2.485,2.309c0.667,1.024,1.657,1.847,2.897,2.293
			c3.478,1.251,7.362-0.991,7.815-4.919C371.377,360.737,370.399,358.606,368.652,357.428z"/>
		<path fill="#FAB9AF" d="M344.728,366.476c-0.673,1.781-1.558,4.005-3.123,3.414c-1.564-0.591-1.909-4.429-1.236-6.21
			c0.673-1.782,1.843-1.84,3.408-1.249C345.341,363.022,345.401,364.695,344.728,366.476z"/>
		<path fill="#46738C" d="M450.46,393.856c-1.209-0.215-2.377,0.581-2.784,1.74l-11.372,32.432
			c-0.136,0.388-0.502,0.647-0.913,0.647h-28.648c-1.861,0-3.37,1.509-3.37,3.37h35.151c0.956,0,1.808-0.604,2.124-1.506
			l11.724-33.436C452.868,395.69,452,394.13,450.46,393.856z"/>
		<path fill="#3C5A73" d="M433.602,430.389c0,0.305-0.247,0.552-0.552,0.552h-3.349c-0.305,0-0.552-0.247-0.552-0.552
			s0.247-0.552,0.552-0.552h3.349C433.355,429.837,433.602,430.084,433.602,430.389z"/>
		<circle fill="#3C5A73" cx="426.109" cy="430.389" r="0.816"/>
		<circle fill="#3C5A73" cx="423.454" cy="430.389" r="0.816"/>
		<path fill="#3C5A73" d="M434.527,428.675h-26.999c0-0.527,0.427-0.954,0.954-0.954h25.091
			C434.1,427.721,434.527,428.148,434.527,428.675z"/>
		<path fill="#FAB9AF" d="M405.829,425.581c-0.839,0.403-1.803,0.803-2.712,1.338c-1.35,0.795-2.914,1.128-4.475,0.986
			c-1.379-0.125-3.099-0.189-5.101-0.199c-1.123-0.005-2.072,0.855-2.166,1.975l0,0c-0.104,1.237,0.863,2.3,2.104,2.336
			c1.82,0.054,3.392-0.106,4.521-0.117c0.534-0.006,1.005-0.027,1.42-0.061c0.734-0.06,1.478-0.055,2.199,0.093
			c1.324,0.272,3.133-1.043,3.853-2.537c0.579-1.199,0.649-0.874,2.058-1.441c1.409-0.567,5.456,0.263,5.461-0.691
			C412.994,426.408,407.736,424.666,405.829,425.581z"/>
		<path fill="#5046AF" d="M329.936,383.802c1.481-2.614,6.124-5.64,11.942,1.335c7.706,9.238,21.155,35.316,25.158,35.763
			c4.003,0.446,30.194,6.42,30.194,6.42c0.627,1.651,0.7,3.23,0,4.709c0,0-29.639,0.016-36.108,0.016
			C354.652,432.045,323.133,395.81,329.936,383.802z"/>
	</g>
</g>
</svg>
