<?xml version="1.0" encoding="utf-8"?>
<!-- Generator: Adobe Illustrator 17.0.0, SVG Export Plug-In . SVG Version: 6.00 Build 0)  -->
<!DOCTYPE svg PUBLIC "-//W3C//DTD SVG 1.1//EN" "http://www.w3.org/Graphics/SVG/1.1/DTD/svg11.dtd">
<svg version="1.1" xmlns="http://www.w3.org/2000/svg" xmlns:xlink="http://www.w3.org/1999/xlink" x="0px" y="0px" width="500px"
	 height="500px" viewBox="0 0 500 500" enable-background="new 0 0 500 500" xml:space="preserve">
<g id="OBJECTS">
	<linearGradient id="SVGID_1_" gradientUnits="userSpaceOnUse" x1="52.5664" y1="210.3946" x2="155.557" y2="210.3946">
		<stop  offset="0" style="stop-color:#FFE7DB"/>
		<stop  offset="0.326" style="stop-color:#FFE4D9"/>
		<stop  offset="0.5573" style="stop-color:#FFDBD1"/>
		<stop  offset="0.7592" style="stop-color:#FFCBC5"/>
		<stop  offset="0.9434" style="stop-color:#FFB5B4"/>
		<stop  offset="1" style="stop-color:#FFADAD"/>
	</linearGradient>
	<circle fill="url(#SVGID_1_)" cx="104.062" cy="210.395" r="51.495"/>
	<path fill="#FBBC57" d="M491.746,8.853L491.746,8.853c-55.797-55.797-146.26-55.797-202.057,0l-239.9,239.9
		c-55.796,55.796-55.796,146.26,0,202.057l0,0c55.796,55.796,146.26,55.796,202.057,0l239.9-239.9
		C547.542,155.113,547.542,64.65,491.746,8.853z"/>
	<linearGradient id="SVGID_2_" gradientUnits="userSpaceOnUse" x1="62.0699" y1="231.3139" x2="587.7213" y2="231.3139">
		<stop  offset="0" style="stop-color:#FFE7DB"/>
		<stop  offset="0.326" style="stop-color:#FFE4D9"/>
		<stop  offset="0.5573" style="stop-color:#FFDBD1"/>
		<stop  offset="0.7592" style="stop-color:#FFCBC5"/>
		<stop  offset="0.9434" style="stop-color:#FFB5B4"/>
		<stop  offset="1" style="stop-color:#FFADAD"/>
	</linearGradient>
	<path fill="url(#SVGID_2_)" d="M545.874,10.336L545.874,10.336c-55.797-55.797-146.26-55.797-202.057,0l-239.9,239.9
		c-55.796,55.796-55.796,146.26,0,202.057l0,0c55.796,55.796,146.26,55.796,202.057,0l239.9-239.9
		C601.67,156.596,601.67,66.132,545.874,10.336z"/>
	
		<line fill="none" stroke="#2D24A3" stroke-width="0.5" stroke-miterlimit="10" x1="44.781" y1="433.013" x2="167.452" y2="433.013"/>
	
		<line fill="none" stroke="#2D24A3" stroke-width="0.5" stroke-miterlimit="10" x1="218.412" y1="431.762" x2="341.083" y2="431.762"/>
	
		<line fill="none" stroke="#2D24A3" stroke-width="0.5" stroke-miterlimit="10" x1="122.548" y1="424.997" x2="245.218" y2="424.997"/>
	<g>
		<g>
			<path fill="#FFFFFF" d="M215.02,172.864c0-11.617-10.056-20.885-21.939-19.574c-9.078,1.002-16.395,8.372-17.346,17.456
				c-0.582,5.557,1.157,10.693,4.358,14.587c2.208,2.685,3.456,6.03,3.749,9.493l0.363,4.294h22.234l0.362-4.291
				c0.291-3.442,1.504-6.784,3.706-9.445C213.323,181.984,215.02,177.626,215.02,172.864z"/>
			<path fill="none" stroke="#ED7E7E" stroke-miterlimit="10" d="M200.055,178.356c-0.426,0-0.815,0.774-1.115,1.119
				c-0.251,0.289-0.675,0.289-0.926,0c-0.3-0.345-0.689-1.119-1.115-1.119c-0.426,0-0.815,0.774-1.115,1.119
				c-0.251,0.289-0.675,0.289-0.926,0c-0.3-0.345-0.689-1.119-1.115-1.119c-0.426,0-0.815,0.774-1.115,1.119
				c-0.251,0.289-0.675,0.289-0.926,0c-0.3-0.345-0.689-1.119-1.115-1.119c-0.947,0-1.714,1.597-1.714,2.869l2.394,17.896h8.106
				l2.394-17.896C201.769,179.953,201.002,178.356,200.055,178.356z"/>
			<polygon opacity="0.2" points="183.891,195.406 184.205,199.121 206.439,199.121 206.753,195.406 			"/>
			<path fill="#212226" d="M249.968,277.282c0,0-9.348,2.077-10.313,4.155h14.979l-1.922-4.155H249.968z"/>
			<path fill="#212226" d="M259.687,297.981l-3.635,8.324c0,0-2.152,0.205-2.819,2.247l7.864-0.777l4.377-6.825l-1.781-2.968
				H259.687z"/>
			<path fill="#2D24A3" d="M243.557,225.643c0,0-16.025,24.137-14.541,29.676c1.484,5.54,19.883,22.653,19.883,22.653h4.897
				c0,0-8.952-22.554-14.591-24.038l16.275-20.081l-2.129-8.21H243.557z"/>
			<path opacity="0.2" d="M251.081,231.803l-20.975,25.771c4.283,6.899,18.793,20.398,18.793,20.398h4.897
				c0,0-8.952-22.554-14.591-24.038l14.083-17.376L251.081,231.803z"/>
			<path fill="#2D24A3" d="M246.228,227.275l3.23,8.754l2.409,27.896l7.32,34.919h5.54c0,0,0.297-29.355-3.858-37.516l3.017-36.724
				L246.228,227.275z"/>
			<path opacity="0.2" d="M253.35,225.643h-9.793c0,0-0.846,1.275-2.124,3.293c3.436,2.125,11.963,6.406,21.767,4.014l0.686-8.346
				l-10.397,1.573L253.35,225.643z"/>
			<path fill="#212226" d="M235.28,175.858c0,0-5.165-3.108-6.259-5.077c-1.094-1.97,0.569-1.663,0.569-1.663
				s-2.451-3.633-1.269-4.859c1.182-1.226,5.603,1.05,5.603,1.05s-1.532-2.845-0.438-3.37c1.094-0.525,2.221,1.204,5.11,2.287
				c1.994,0.748,6.927,1.959,6.883,4.454c2.364,0.919,3.852,4.027,2.845,6.741c-1.007,2.714-3.064,7.547-3.064,7.547L235.28,175.858
				z"/>
			<polygon fill="#D99393" points="227.334,203.98 221.349,209.569 202.702,202.384 199.636,200.072 198.301,200.616 
				199.933,202.842 194.542,203.436 195.432,207.491 203.642,207.392 223.031,216.592 232.725,208.332 			"/>
			<g>
				<path fill="#212226" d="M198.014,201.798h-5.385c-2.196,0-3.977,1.78-3.977,3.977v8.188c0,2.196,1.78,3.977,3.977,3.977h5.385
					c2.196,0,3.977-1.78,3.977-3.977v-8.188C201.991,203.578,200.21,201.798,198.014,201.798z"/>
				<rect x="183.839" y="197.928" fill="#9A9FB3" width="22.966" height="16.907"/>
				<g>
					<polygon opacity="0.2" points="206.805,200.689 183.839,202.754 183.839,201.755 206.805,199.691 					"/>
					<polygon opacity="0.2" points="206.805,204.129 183.839,206.194 183.839,205.195 206.805,203.13 					"/>
					<polygon opacity="0.2" points="206.805,207.569 183.839,209.634 183.839,208.635 206.805,206.57 					"/>
					<polygon opacity="0.2" points="206.805,211.009 183.839,213.073 183.839,212.074 206.805,210.01 					"/>
				</g>
			</g>
			<polygon fill="#FFE7DB" points="233.318,194.335 224.787,204.944 232.329,210.434 238.321,203.733 			"/>
			<path fill="#31AEE0" d="M243.779,186.545c3.57-0.696,10.238,1.187,13.132,6.974c2.893,5.787,9.274,22.999,8.458,33.237
				c0,0-12.538,5.787-22.925,1.484c0,0-1.054-12.761-2.641-18.177c-1.588-5.416-4.506-5.49-6.484-15.728
				C233.318,194.335,238.067,187.658,243.779,186.545z"/>
			<path opacity="0.2" d="M242.114,224.749l12.083-24.677l-14.383,10.03C240.868,213.73,241.686,220.584,242.114,224.749z"/>
			<path fill="#FFADAD" d="M240.095,203.287l-7.023,8.013l-22.554-5.409c0,0-5.836-4.73-6.43-4.285
				c-0.594,0.445,1.682,3.314,1.682,3.314l-5.441,0.971l-3.611-0.279l2.275,5.095l4.254,0.594l6.578-0.866L235,219.213
				l13.156-10.585L240.095,203.287z"/>
			<path fill="#FFE7DB" d="M253.053,192.136c-3.215-2.105-6.529,0.269-9.101,3.138c-2.572,2.869-6.159,8.013-6.159,8.013
				l9.483,8.013c0,0,6.901-9.16,7.714-11.52C256.219,196.214,255.252,193.576,253.053,192.136z"/>
			<path fill="#FFADAD" d="M234.536,172.006l-1.05,5.559h1.576c0,0-0.219,2.758-0.219,3.939c0,1.182,0.657,2.364,3.478,2.013
				l0.636,7.616c0,0,3.72,1.619,7.047-4.377l-1.444-7.353c0,0,1.97-0.306,2.145-2.364c0.175-2.057-2.407-1.05-2.407-1.05
				l-0.613,3.939l-1.838,0.394l0.175-6.653c0,0-4.277,0.873-5.471-0.263c-0.627-0.596-1.05-1.401-1.05-1.401H234.536z"/>
		</g>
		<g>
			<polygon fill="#392ECF" points="253.698,257.081 221.648,257.081 220.853,254.232 252.903,254.232 			"/>
			<polygon fill="#392ECF" points="257.42,270.408 225.369,270.408 224.574,267.559 256.624,267.559 			"/>
			<polygon fill="#392ECF" points="261.141,283.735 229.091,283.735 228.295,280.886 260.346,280.886 			"/>
			<polygon fill="#392ECF" points="264.862,297.061 232.812,297.061 232.017,294.213 264.067,294.213 			"/>
			<polygon fill="#392ECF" points="268.584,310.388 236.533,310.388 235.738,307.54 267.788,307.54 			"/>
			<polygon fill="#392ECF" points="272.305,323.715 240.255,323.715 239.459,320.866 271.51,320.866 			"/>
			<polygon fill="#392ECF" points="276.026,337.042 243.976,337.042 243.18,334.193 275.231,334.193 			"/>
			<polygon fill="#392ECF" points="279.747,350.368 247.697,350.368 246.902,347.52 278.952,347.52 			"/>
			<polygon fill="#392ECF" points="283.469,363.695 251.418,363.695 250.623,360.847 282.673,360.847 			"/>
			<polygon fill="#392ECF" points="287.19,377.022 255.14,377.022 254.344,374.173 286.395,374.173 			"/>
			<polygon fill="#392ECF" points="290.911,390.349 258.861,390.349 258.066,387.5 290.116,387.5 			"/>
			<polygon fill="#392ECF" points="294.633,403.676 262.582,403.676 261.787,400.827 293.837,400.827 			"/>
			<polygon fill="#392ECF" points="298.354,417.002 266.304,417.002 265.508,414.154 297.558,414.154 			"/>
			<g>
				<linearGradient id="SVGID_3_" gradientUnits="userSpaceOnUse" x1="215.4799" y1="336.5648" x2="272.2056" y2="336.5648">
					<stop  offset="0" style="stop-color:#FFE7DB"/>
					<stop  offset="0.3894" style="stop-color:#FFE9DE"/>
					<stop  offset="0.6657" style="stop-color:#FFEFE7"/>
					<stop  offset="0.9062" style="stop-color:#FFF9F7"/>
					<stop  offset="1" style="stop-color:#FFFFFF"/>
				</linearGradient>
				<polygon fill="url(#SVGID_3_)" points="272.206,431.762 268.645,431.762 215.48,241.367 219.041,241.367 				"/>
				<linearGradient id="SVGID_4_" gradientUnits="userSpaceOnUse" x1="247.5302" y1="336.5648" x2="304.2559" y2="336.5648">
					<stop  offset="0" style="stop-color:#FFE7DB"/>
					<stop  offset="0.3894" style="stop-color:#FFE9DE"/>
					<stop  offset="0.6657" style="stop-color:#FFEFE7"/>
					<stop  offset="0.9062" style="stop-color:#FFF9F7"/>
					<stop  offset="1" style="stop-color:#FFFFFF"/>
				</linearGradient>
				<polygon fill="url(#SVGID_4_)" points="304.256,431.762 300.695,431.762 247.53,241.367 251.091,241.367 				"/>
			</g>
		</g>
		<g>
			
				<linearGradient id="SVGID_5_" gradientUnits="userSpaceOnUse" x1="146.5064" y1="485.8302" x2="144.528" y2="531.927" gradientTransform="matrix(0.9923 0.1239 -0.1239 0.9923 73.9789 -121.1854)">
				<stop  offset="0" style="stop-color:#402C2C"/>
				<stop  offset="0.2876" style="stop-color:#5B3E3E"/>
				<stop  offset="0.7555" style="stop-color:#825858"/>
				<stop  offset="1" style="stop-color:#916262"/>
			</linearGradient>
			<path fill="url(#SVGID_5_)" d="M155.003,376.116l-4.135,51.494c-0.099,1.238,0.793,2.335,2.026,2.489
				c1.233,0.154,2.368-0.69,2.576-1.914l8.652-50.93L155.003,376.116z"/>
			
				<linearGradient id="SVGID_6_" gradientUnits="userSpaceOnUse" x1="1762.2352" y1="284.088" x2="1760.2568" y2="330.1848" gradientTransform="matrix(-0.9923 0.1239 0.1239 0.9923 1951.1442 -121.1854)">
				<stop  offset="0" style="stop-color:#402C2C"/>
				<stop  offset="0.2876" style="stop-color:#5B3E3E"/>
				<stop  offset="0.7555" style="stop-color:#825858"/>
				<stop  offset="1" style="stop-color:#916262"/>
			</linearGradient>
			<path fill="url(#SVGID_6_)" d="M241.836,376.116l4.135,51.494c0.099,1.238-0.794,2.335-2.026,2.489
				c-1.233,0.154-2.368-0.69-2.576-1.914l-8.652-50.93L241.836,376.116z"/>
		</g>
		<g>
			
				<linearGradient id="SVGID_7_" gradientUnits="userSpaceOnUse" x1="125.1034" y1="483.3431" x2="123.1251" y2="529.4399" gradientTransform="matrix(0.9923 0.1239 -0.1239 0.9923 73.9789 -121.1854)">
				<stop  offset="0" style="stop-color:#402C2C"/>
				<stop  offset="0.2876" style="stop-color:#5B3E3E"/>
				<stop  offset="0.7555" style="stop-color:#825858"/>
				<stop  offset="1" style="stop-color:#916262"/>
			</linearGradient>
			<path fill="url(#SVGID_7_)" d="M134.073,370.996l-4.135,51.494c-0.099,1.238,0.794,2.335,2.026,2.489
				c1.232,0.154,2.368-0.69,2.576-1.914l8.652-50.93L134.073,370.996z"/>
			
				<linearGradient id="SVGID_8_" gradientUnits="userSpaceOnUse" x1="1782.3694" y1="276.4145" x2="1780.391" y2="322.5113" gradientTransform="matrix(-0.9923 0.1239 0.1239 0.9923 1951.1442 -121.1854)">
				<stop  offset="0" style="stop-color:#402C2C"/>
				<stop  offset="0.2876" style="stop-color:#5B3E3E"/>
				<stop  offset="0.7555" style="stop-color:#825858"/>
				<stop  offset="1" style="stop-color:#916262"/>
			</linearGradient>
			<path fill="url(#SVGID_8_)" d="M220.906,370.996l4.135,51.494c0.099,1.238-0.794,2.335-2.026,2.489
				c-1.233,0.154-2.368-0.69-2.576-1.914l-8.652-50.93L220.906,370.996z"/>
		</g>
		<rect x="147.479" y="237.15" fill="#A67070" width="101.882" height="147.344"/>
		<linearGradient id="SVGID_9_" gradientUnits="userSpaceOnUse" x1="137.0138" y1="377.9141" x2="137.0138" y2="240.0758">
			<stop  offset="0" style="stop-color:#402C2C"/>
			<stop  offset="0.2876" style="stop-color:#5B3E3E"/>
			<stop  offset="0.7555" style="stop-color:#825858"/>
			<stop  offset="1" style="stop-color:#916262"/>
		</linearGradient>
		<rect x="126.549" y="237.15" fill="url(#SVGID_9_)" width="20.93" height="147.344"/>
		<rect x="150.945" y="240.316" fill="#402C2C" width="94.95" height="141.013"/>
		<g>
			<path fill="#FFFFFF" d="M243.618,350.258c0.127-1.229,0.206-2.471,0.173-3.739c-0.032-1.268-0.174-2.504-0.363-3.725
				l-5.925,0.151c-0.286-1.506-0.715-2.955-1.278-4.339l5.075-3.105c-1.026-2.299-2.361-4.421-3.922-6.353l-5.034,3.08
				c-0.99-1.146-2.091-2.193-3.287-3.123l2.82-5.184c-2.009-1.46-4.196-2.685-6.545-3.593l-2.842,5.226
				c-1.411-0.492-2.88-0.847-4.398-1.055l-0.151-5.925c-1.229-0.127-2.471-0.206-3.739-0.173c-1.268,0.032-2.504,0.174-3.725,0.363
				l0.151,5.925c-1.505,0.286-2.955,0.715-4.339,1.278l-3.105-5.075c-2.299,1.026-4.421,2.361-6.353,3.922l3.08,5.034
				c-1.146,0.991-2.192,2.092-3.123,3.287l-5.184-2.819c-1.46,2.009-2.685,4.196-3.593,6.545l5.226,2.842
				c-0.492,1.411-0.847,2.88-1.055,4.398l-5.925,0.151c-0.127,1.229-0.205,2.471-0.173,3.738c0.032,1.268,0.174,2.505,0.363,3.725
				l5.925-0.151c0.286,1.506,0.715,2.955,1.278,4.339l-5.075,3.105c1.026,2.3,2.361,4.422,3.922,6.353l5.034-3.08
				c0.99,1.146,2.091,2.192,3.287,3.123l-2.82,5.184c2.009,1.46,4.196,2.685,6.545,3.593l2.842-5.226
				c1.411,0.492,2.88,0.847,4.399,1.055l0.151,5.925c1.228,0.127,2.471,0.206,3.739,0.173c1.268-0.032,2.505-0.174,3.725-0.363
				l-0.151-5.925c1.506-0.286,2.955-0.715,4.339-1.278l3.105,5.075c2.3-1.026,4.422-2.361,6.353-3.922l-3.08-5.034
				c1.146-0.991,2.192-2.091,3.123-3.287l5.184,2.82c1.46-2.009,2.685-4.196,3.593-6.545l-5.226-2.842
				c0.491-1.411,0.847-2.88,1.055-4.398L243.618,350.258z M215.073,352.586c-2.944,0.075-5.392-2.251-5.467-5.195
				c-0.075-2.944,2.251-5.392,5.195-5.467s5.392,2.251,5.467,5.195C220.343,350.063,218.017,352.511,215.073,352.586z"/>
			<circle fill="none" stroke="#9A9FB3" stroke-miterlimit="10" cx="214.937" cy="347.255" r="12.266"/>
			<circle fill="none" stroke="#9A9FB3" stroke-miterlimit="10" cx="214.937" cy="347.255" r="17.529"/>
		</g>
		<g>
			<path fill="#FFFFFF" d="M228.27,289.565c0.207-1.603,0.351-3.225,0.351-4.884c0-1.659-0.144-3.281-0.351-4.884h-7.754
				c-0.324-1.979-0.837-3.889-1.527-5.717l6.74-3.892c-1.266-3.042-2.94-5.861-4.917-8.439l-6.686,3.86
				c-1.257-1.532-2.662-2.937-4.194-4.194l3.86-6.686c-2.578-1.977-5.398-3.652-8.44-4.917l-3.892,6.74
				c-1.829-0.69-3.739-1.203-5.717-1.527v-7.754c-1.603-0.207-3.225-0.351-4.884-0.351c-1.659,0-3.281,0.144-4.884,0.351v7.754
				c-1.979,0.324-3.889,0.837-5.717,1.527l-3.892-6.74c-3.042,1.266-5.861,2.94-8.44,4.917l3.86,6.686
				c-1.532,1.257-2.937,2.662-4.194,4.194l-6.686-3.86c-1.977,2.578-3.652,5.398-4.917,8.439l6.74,3.892
				c-0.69,1.829-1.203,3.739-1.527,5.717h-7.755c-0.207,1.602-0.351,3.225-0.351,4.884c0,1.659,0.144,3.281,0.351,4.884h7.755
				c0.324,1.979,0.837,3.888,1.527,5.717l-6.74,3.892c1.266,3.042,2.94,5.861,4.917,8.44l6.686-3.86
				c1.257,1.532,2.662,2.937,4.194,4.194l-3.86,6.686c2.578,1.977,5.398,3.652,8.44,4.917l3.892-6.74
				c1.829,0.69,3.739,1.203,5.717,1.527v7.755c1.602,0.207,3.225,0.351,4.884,0.351c1.659,0,3.281-0.144,4.884-0.351v-7.755
				c1.979-0.324,3.889-0.837,5.717-1.527l3.892,6.74c3.042-1.266,5.861-2.941,8.44-4.917l-3.86-6.686
				c1.532-1.257,2.937-2.662,4.194-4.194l6.686,3.86c1.977-2.578,3.651-5.398,4.917-8.44l-6.74-3.892
				c0.69-1.829,1.203-3.739,1.527-5.717H228.27z M190.86,291.658c-3.853,0-6.977-3.124-6.977-6.977c0-3.853,3.124-6.977,6.977-6.977
				c3.853,0,6.977,3.124,6.977,6.977C197.837,288.535,194.713,291.658,190.86,291.658z"/>
			<circle fill="none" stroke="#9A9FB3" stroke-miterlimit="10" cx="190.86" cy="284.682" r="16.047"/>
			<circle fill="none" stroke="#9A9FB3" stroke-miterlimit="10" cx="190.86" cy="284.682" r="22.932"/>
		</g>
		<g>
			<path fill="#402C2C" d="M101.927,422.923l-3.66,10.09h19.812c0,0-5.37-4.847-11.008-5.737l-1.385-2.968L101.927,422.923z"/>
			<path fill="#402C2C" d="M143.424,422.923l-2.72,10.09h19.812c0,0-5.37-4.847-11.008-5.737l-1.385-2.968L143.424,422.923z"/>
			<path fill="#FFFFFF" d="M142.19,322.686l6.974,102.531h-6.974c0,0-9.2-35.76-8.013-45.701l-12.464-56.83H142.19z"/>
			<path opacity="0.2" d="M124.743,336.497l9.435,43.019c-1.187,9.941,8.012,45.701,8.012,45.701h6.974l-3.654-53.73l-13.808-39.126
				L124.743,336.497z"/>
			<path fill="#FFFFFF" d="M135.439,324.17l-28.712,101.047h-6.677c0,0,4.6-42.734,10.535-50.524l4.006-50.524h21.515"/>
			<path fill="#FFADAD" d="M151.538,272.756l29.157-22.035l7.642-6.603l5.045,0.371l1.484,2.152l-6.009,2.893
				c0,0,4.451,1.039,4.451,1.558c0,0.519-6.974,1.781-9.422,1.855l-22.925,23.073l-10.016,5.935L151.538,272.756z"/>
			<path fill="#2D24A3" d="M143.328,274.957l9.472-5.243c0,0,3.561,6.38,3.932,12.019l-16.025,13.651L143.328,274.957z"/>
			<polygon opacity="0.2" points="145.104,291.637 143.201,275.943 143.201,275.943 140.706,295.384 			"/>
			<polygon fill="#FFADAD" points="98.725,320.791 103.463,309.579 109.398,312.843 105.54,322.686 			"/>
			<path fill="#FFADAD" d="M129.789,259.952l3.972,6.494l-1.986,0.946c0,0,1.356,3.909,0.725,5.359
				c-0.631,1.45-2.711,2.27-2.711,3.594s0.567,4.035,0.567,4.035l-7.49,3.087c0,0-1.022-6.744-1.967-7.437s-6.998-3.468-6.305-8.133
				l11.096-8.89L129.789,259.952z"/>
			<path fill="#402C2C" d="M123.862,272.498c-1.009,0.063-2.144-0.189-2.837-2.018c-0.694-1.828,0.315-2.459,1.198-2.585
				c0.883-0.126,2.333,3.342,2.873,2.9c0.541-0.441-0.351-4.792-0.351-4.792c1.324-1.765,0.371-4.287,0.371-4.287l-1.661-0.92
				l-8.861,7.099c-0.694,4.666,5.359,7.44,6.305,8.133c0.316,0.232,0.617,0.973,0.878,1.853
				C124.774,275.893,123.862,272.498,123.862,272.498z"/>
			<path fill="#2D24A3" d="M110.585,289.597c7.716-5.638,26.808-10.782,32.743-14.64c0,0-1.611,40.638,1.802,53.844
				c0,0-13.701,3.017-33.386,1.83C111.744,330.63,115.531,301.962,110.585,289.597z"/>
			<path opacity="0.2" d="M128.437,285.572c0,0,5.836,24.521,2.077,38.598C134.373,311.341,131.702,293.832,128.437,285.572z"/>
			<path opacity="0.2" d="M116.718,302.493l-3.552,2.219c0.147,3.702,0.072,7.399-0.096,10.674L116.718,302.493z"/>
			<path fill="#2D24A3" d="M110.585,289.597c-4.056,3.165-10.535,21.861-10.535,21.861l12.436,4.674l4.232-13.639
				C116.718,302.493,114.839,292.367,110.585,289.597z"/>
			<path opacity="0.2" d="M128.875,302.567c-0.089-0.663-0.232-1.327-0.439-1.986c-0.207-0.66-0.47-1.286-0.777-1.88l-2.984,0.939
				c-0.48-0.804-1.078-1.513-1.766-2.109l1.445-2.772c-1.081-0.826-2.298-1.46-3.594-1.874l-1.446,2.772
				c-0.883-0.223-1.806-0.308-2.74-0.241l-0.939-2.984c-0.663,0.089-1.327,0.232-1.986,0.439c-0.66,0.207-1.286,0.47-1.88,0.777
				l0.939,2.984c-0.804,0.48-1.513,1.078-2.109,1.766l-2.772-1.446c-0.826,1.081-1.46,2.298-1.874,3.594l2.772,1.445
				c-0.223,0.883-0.307,1.806-0.241,2.74l-2.984,0.939c0.089,0.663,0.232,1.327,0.439,1.986c0.207,0.66,0.47,1.286,0.777,1.88
				l2.984-0.939c0.48,0.804,1.078,1.513,1.766,2.109l-1.445,2.772c1.081,0.826,2.298,1.46,3.594,1.874l1.445-2.772
				c0.883,0.223,1.806,0.308,2.74,0.241l0.939,2.984c0.663-0.089,1.327-0.232,1.986-0.439c0.66-0.208,1.286-0.47,1.88-0.777
				l-0.939-2.984c0.804-0.48,1.513-1.078,2.109-1.766l2.772,1.446c0.826-1.081,1.461-2.298,1.874-3.594l-2.772-1.445
				c0.223-0.883,0.307-1.806,0.241-2.74L128.875,302.567z M117.948,306.535c-1.335,0.42-2.757-0.322-3.177-1.656
				c-0.42-1.335,0.322-2.757,1.656-3.177c1.334-0.42,2.757,0.322,3.176,1.656C120.024,304.693,119.283,306.115,117.948,306.535z"/>
			<path fill="#FFFFFF" d="M130.062,301.38c-0.089-0.663-0.232-1.327-0.439-1.986c-0.207-0.66-0.47-1.286-0.777-1.88l-2.984,0.939
				c-0.48-0.804-1.078-1.513-1.766-2.109l1.446-2.772c-1.081-0.826-2.298-1.46-3.594-1.874l-1.445,2.772
				c-0.883-0.223-1.806-0.308-2.74-0.241l-0.939-2.984c-0.663,0.089-1.327,0.232-1.986,0.439c-0.66,0.207-1.286,0.47-1.88,0.777
				l0.939,2.984c-0.804,0.48-1.513,1.078-2.109,1.766l-2.772-1.445c-0.826,1.081-1.46,2.298-1.874,3.594l2.772,1.445
				c-0.223,0.883-0.308,1.806-0.241,2.74l-2.984,0.939c0.089,0.663,0.232,1.327,0.439,1.986c0.208,0.66,0.47,1.286,0.777,1.88
				l2.984-0.939c0.48,0.804,1.078,1.513,1.766,2.109l-1.446,2.772c1.081,0.826,2.298,1.46,3.594,1.874l1.445-2.772
				c0.883,0.223,1.806,0.307,2.74,0.241l0.939,2.984c0.663-0.089,1.327-0.232,1.986-0.439c0.66-0.207,1.286-0.47,1.88-0.777
				l-0.939-2.984c0.804-0.48,1.513-1.078,2.109-1.766l2.772,1.446c0.826-1.081,1.46-2.298,1.874-3.594l-2.772-1.446
				c0.223-0.883,0.307-1.806,0.241-2.74L130.062,301.38z M119.135,305.348c-1.335,0.42-2.757-0.322-3.177-1.656
				c-0.42-1.335,0.322-2.757,1.656-3.177c1.334-0.42,2.757,0.322,3.177,1.656C121.212,303.506,120.47,304.928,119.135,305.348z"/>
			<path fill="#31AEE0" d="M122.447,281.053c0,0,1.465,1.141,4.567,0.789v3.729l-5.18-1.682L122.447,281.053z"/>
			<path fill="#31AEE0" d="M127.014,281.842l2.709,2.839l2.582-4.85l-1.989-1.678C130.317,278.153,129.597,280.042,127.014,281.842z
				"/>
			<polygon opacity="0.2" points="129.789,259.952 125.691,259.006 114.594,267.896 131.182,262.229 			"/>
			<path fill="#ED7E7E" d="M114.594,267.896c0,0,22.004-10.403,21.878-10.781c-0.126-0.378-6.242,1.891-6.242,1.891
				s-2.585-5.107-6.998-4.413c-4.413,0.694-9.016,5.296-9.394,7.503C113.459,264.302,114.594,267.896,114.594,267.896z"/>
			<path fill="#FFADAD" d="M98.195,324.17c1.059,2.688,6.38,2.745,24.557-9.867c0,0,4.303-0.371,6.084-1.929
				c1.781-1.558,3.561-5.416,3.561-5.416l-0.742-0.445c0,0-5.119,2.819-6.009,2.448c-0.89-0.371,1.558-3.561,1.187-3.784
				c-0.371-0.223-4.377,2.745-5.787,5.342c0,0-12.538,4.971-17.361,7.048C98.863,319.644,97.231,321.721,98.195,324.17z"/>
		</g>
		<g>
			<path fill="#FFADAD" d="M265.506,370.859l11.158,7.434l-5.558,17.343c0,0-4.041,1.805-4.78,3.2
				c-0.738,1.395-2.051,3.2-1.313,3.118s2.871-1.887,3.282-1.887c0.41,0-0.656,4.923-0.656,4.923s3.692-0.492,5.087-2.625
				c1.395-2.133,2.231-5.907,2.231-5.907s6.63-12.388,8.271-21.003c0,0-12.47-10.748-16.491-12.306
				C262.717,361.589,260.256,367.935,265.506,370.859z"/>
			<path opacity="0.2" d="M271.107,374.591l5.558,3.703l-5.558,17.343c0,0-4.041,1.805-4.78,3.2c-0.738,1.395-2.051,3.2-1.313,3.118
				s2.872-1.887,3.282-1.887c0.41,0-0.656,4.923-0.656,4.923s3.692-0.492,5.087-2.625c1.395-2.133,2.231-5.907,2.231-5.907
				s5.372-10.041,7.641-18.329L271.107,374.591z"/>
			<path fill="#2D24A3" d="M254.964,392.313l-1.364,2.197c0,0-30.427-1.581-34.489,3.71c-4.061,5.292,5.292,14.645,16.367,21.782
				c11.076,7.138,7.261,4.922,7.261,4.922s-10.583,1.477-10.46,3.077c0.123,1.6,20.183,0,20.183,0l-17.967-20.552l25.228,1.231
				l5.415-15.137L254.964,392.313z"/>
			<g opacity="0.2">
				<path d="M242.74,424.925c0,0-10.584,1.477-10.46,3.077c0.123,1.6,20.182,0,20.182,0l-17.198-19.671
					c-3.255,2.081-6.261,4.013-8.334,5.371c2.553,2.181,5.484,4.326,8.549,6.301C246.555,427.14,242.74,424.925,242.74,424.925z"/>
				<path d="M253.6,396.689c0,0-9.036,5.706-17.11,10.859l23.232,1.133l5.415-15.137l-9.716-1.175L253.6,396.689z"/>
			</g>
			<path fill="#392ECF" d="M255.845,391.329l-0.882,5.907c0,0-14.07,8.984-19.608,16.737s-10.117,16.181-7.947,19.444
				c3.763,5.661,39.452-9.476,39.452-9.476l-1.108,5.907c0,0-5.266,3.323-4.663,4.184c0.602,0.861,11.063-2.338,11.063-2.338
				s3.2-13.414,2.092-16.244c-1.108-2.831-8.081,3.569-8.081,3.569l-17.915,2.221c0,0,13.567-6.405,20.951-12.066
				c5.446-4.175,6.7-11.445,3.289-17.844H255.845z"/>
			<path fill="#FFADAD" d="M266.163,419.018l-13.141,1.629c0.529,1.112,1.42,3.918,0.093,8.594c7.521-2.662,13.746-5.3,13.746-5.3
				l-1.108,5.907c0,0-5.266,3.323-4.663,4.184c0.602,0.861,11.063-2.338,11.063-2.338s3.2-13.414,2.092-16.244
				C273.136,412.619,266.163,419.018,266.163,419.018z"/>
			<path fill="#402C2C" d="M267.999,417.477l1.753,5.911l-3.223,2.321l-0.776,4.14c0,0-5.266,3.323-4.663,4.184
				c0.602,0.861,11.063-2.338,11.063-2.338s3.2-13.414,2.092-16.244C273.503,413.557,270.146,415.788,267.999,417.477z"/>
			<path fill="#ED7E7E" d="M240.217,345.549c0,0-6.399,8.43,5.722,10.953c12.122,2.523,10.056-4.288,9.254-5.948
				S244.401,343.95,240.217,345.549z"/>
			<path fill="#FFADAD" d="M241.447,348.743c0,0,1.186,5.203,0,7.113h1.844c0,0,1.054,2.042,1.778,3.425
				c0.725,1.383,3.095-0.593,4.018,0c0.922,0.593,2.656,5.62,2.656,5.62l9.067-2.722l-7.574-15.675L241.447,348.743z"/>
			<linearGradient id="SVGID_10_" gradientUnits="userSpaceOnUse" x1="260.0294" y1="375.5028" x2="264.6729" y2="408.007">
				<stop  offset="0" style="stop-color:#FFE7DB"/>
				<stop  offset="0.5794" style="stop-color:#C29591"/>
				<stop  offset="0.875" style="stop-color:#A67070"/>
			</linearGradient>
			<path fill="url(#SVGID_10_)" d="M249.263,361.369c0,0,3.199,0.548,7.793-2.242l1.641,1.641l5.825,0.623
				c0,0,5.251,6.515,6.153,14.473c0.902,7.958,1.805,12.552,3.528,14.275c1.723,1.723,0.164,3.692-1.395,4.02
				c-1.559,0.328-15.096,0.738-17.844,0.738c-2.748,0-1.764-2.625-0.615-3.692c1.149-1.067,1.313-6.563-0.82-8.614
				c-2.133-2.051-4.989-3.499-5.989-6.727c-1.436-4.635,2.461-11.896,2.461-11.896L249.263,361.369z"/>
			<path fill="#FFADAD" d="M233.771,382.131c0,0,8.415-8.585,10.63-11.538c2.215-2.954,6.092-5.692,8.553-2.657
				c2.124,2.619-1.6,6.595-2.4,7.826c-0.613,0.942-9.508,8.993-13.643,12.715c-1.249,1.124-3.069,1.329-4.54,0.516l-16.32-9.018
				c0,0-1.519,0.795-3.549,0.549c-2.031-0.246-1.736-0.212-2.598-1.012c-0.862-0.8-3.692-2.745-3.692-3.914
				c0,0,6.276,0.914,7.199,0.052c0.923-0.862-1.046-3.507-0.062-4.369l3.439,4.317L233.771,382.131z"/>
			<path opacity="0.2" d="M246.339,352.106c0.486,4.885,5.911,4.93,7.684,7.848c1.773,2.918,0.557,5.055,3.85,6.186
				c3.222,1.107,8.484,6.832,11.131,3.248c-1.857-4.727-4.482-7.996-4.482-7.996l-4.315-0.461l-5.013-10.375l0-0.001l0,0
				l-1.957-4.05l-3.471,0.659c-3.296-1.417-7.276-2.482-9.549-1.613c0,0-0.593,0.785-1.074,1.945
				C239.5,352.456,246.339,352.106,246.339,352.106z"/>
			<path fill="#ED7E7E" d="M238.843,345.426c0.362-4.77,8.204-6.153,12.799-4.348c4.594,1.805,5.169,5.825,9.189,7.63
				c4.02,1.805,4.102,5.415,6.235,7.548c2.133,2.133,5.579,5.825,3.282,10.091c-2.297,4.266-8.122-1.313-11.486-2.215
				c-3.364-0.902-2.297-3.118-4.266-5.907c-1.969-2.789-7.384-2.461-8.204-7.302C246.391,350.923,238.35,351.908,238.843,345.426z"
				/>
			<polygon opacity="0.2" points="248.248,421.239 241.641,425.827 253.021,420.647 			"/>
		</g>
		<linearGradient id="SVGID_11_" gradientUnits="userSpaceOnUse" x1="174.2622" y1="378.2478" x2="174.2622" y2="313.7105">
			<stop  offset="0" style="stop-color:#402C2C"/>
			<stop  offset="0.2876" style="stop-color:#5B3E3E"/>
			<stop  offset="0.7555" style="stop-color:#825858"/>
			<stop  offset="1" style="stop-color:#916262"/>
		</linearGradient>
		<polygon fill="url(#SVGID_11_)" points="150.945,312.341 150.945,381.329 197.58,381.329 		"/>
		
			<linearGradient id="SVGID_12_" gradientUnits="userSpaceOnUse" x1="1944.3785" y1="635.6817" x2="1944.3785" y2="586.988" gradientTransform="matrix(-1 0 0 -1 2172.6804 878.4689)">
			<stop  offset="0" style="stop-color:#402C2C"/>
			<stop  offset="0.2876" style="stop-color:#5B3E3E"/>
			<stop  offset="0.7555" style="stop-color:#825858"/>
			<stop  offset="1" style="stop-color:#916262"/>
		</linearGradient>
		<polygon fill="url(#SVGID_12_)" points="245.895,292.514 245.895,240.463 210.709,240.463 		"/>
		<g>
			<rect x="176.934" y="225.478" fill="#9A9FB3" width="29.973" height="11.673"/>
			<rect x="176.934" y="233.243" opacity="0.2" width="29.973" height="3.907"/>
		</g>
	</g>
	<g>
		<g>
			<linearGradient id="SVGID_13_" gradientUnits="userSpaceOnUse" x1="66.357" y1="378.4196" x2="67.9048" y2="351.7494">
				<stop  offset="0" style="stop-color:#FFE7DB"/>
				<stop  offset="0.326" style="stop-color:#FFE4D9"/>
				<stop  offset="0.5573" style="stop-color:#FFDBD1"/>
				<stop  offset="0.7592" style="stop-color:#FFCBC5"/>
				<stop  offset="0.9434" style="stop-color:#FFB5B4"/>
				<stop  offset="1" style="stop-color:#FFADAD"/>
			</linearGradient>
			<path fill="url(#SVGID_13_)" d="M67.313,341.323c11.423,0,5.753,40.709,0,40.709C61.561,382.032,57.154,341.323,67.313,341.323z"
				/>
			
				<line fill="none" stroke="#2D24A3" stroke-width="0.5" stroke-miterlimit="10" x1="67.162" y1="341.323" x2="67.162" y2="390.675"/>
		</g>
		<g>
			<linearGradient id="SVGID_14_" gradientUnits="userSpaceOnUse" x1="42.5723" y1="353.8544" x2="56.979" y2="376.4764">
				<stop  offset="0" style="stop-color:#FFE7DB"/>
				<stop  offset="0.326" style="stop-color:#FFE4D9"/>
				<stop  offset="0.5573" style="stop-color:#FFDBD1"/>
				<stop  offset="0.7592" style="stop-color:#FFCBC5"/>
				<stop  offset="0.9434" style="stop-color:#FFB5B4"/>
				<stop  offset="1" style="stop-color:#FFADAD"/>
			</linearGradient>
			<path fill="url(#SVGID_14_)" d="M44.901,355.566c10.2-5.141,19.721,26.35,14.584,28.939
				C54.348,387.093,35.828,360.138,44.901,355.566z"/>
			
				<line fill="none" stroke="#2D24A3" stroke-width="0.5" stroke-miterlimit="10" x1="44.765" y1="355.634" x2="62.446" y2="390.716"/>
		</g>
		<g>
			
				<linearGradient id="SVGID_15_" gradientUnits="userSpaceOnUse" x1="460.1893" y1="353.8544" x2="474.5959" y2="376.4764" gradientTransform="matrix(-1 0 0 1 553.0985 0)">
				<stop  offset="0" style="stop-color:#FFE7DB"/>
				<stop  offset="0.326" style="stop-color:#FFE4D9"/>
				<stop  offset="0.5573" style="stop-color:#FFDBD1"/>
				<stop  offset="0.7592" style="stop-color:#FFCBC5"/>
				<stop  offset="0.9434" style="stop-color:#FFB5B4"/>
				<stop  offset="1" style="stop-color:#FFADAD"/>
			</linearGradient>
			<path fill="url(#SVGID_15_)" d="M90.581,355.566c-10.2-5.141-19.721,26.35-14.584,28.939
				C81.134,387.093,99.653,360.138,90.581,355.566z"/>
			
				<line fill="none" stroke="#2D24A3" stroke-width="0.5" stroke-miterlimit="10" x1="90.716" y1="355.634" x2="73.036" y2="390.716"/>
		</g>
		<rect x="56.032" y="389.038" fill="#FFFFFF" width="23.485" height="3.028"/>
		<polygon fill="#FFFFFF" points="75.916,412.702 59.634,412.702 57.342,390.552 78.207,390.552 		"/>
		<polygon opacity="0.2" points="77.508,397.314 78.09,392.066 57.498,392.063 57.503,392.107 		"/>
	</g>
	
		<line fill="none" stroke="#2D24A3" stroke-width="0.5" stroke-miterlimit="10" x1="48.724" y1="412.702" x2="84.443" y2="412.702"/>
</g>
<g id="DESIGNED_BY_FREEPIK">
</g>
</svg>
